<svg version="1.1" id="Layer_1" xmlns="http://www.w3.org/2000/svg" xmlns:xlink="http://www.w3.org/1999/xlink" x="0px" y="0px"
	 width="100%" viewBox="0 0 1600 1600" enable-background="new 0 0 1600 1600" xml:space="preserve">
<path fill="#000000" opacity="1.000000" stroke="none" 
	d="
M842.000000,1601.000000 
	C561.333374,1601.000000 281.166779,1601.000000 1.000113,1601.000000 
	C1.000075,1067.666870 1.000075,534.333618 1.000038,1.000328 
	C534.333069,1.000218 1067.666138,1.000218 1600.999512,1.000109 
	C1600.999634,534.333008 1600.999634,1067.666016 1600.999756,1600.999512 
	C1348.166626,1601.000000 1095.333374,1601.000000 842.000000,1601.000000 
M300.935944,844.500000 
	C301.137512,920.144958 301.321716,995.790039 301.552917,1071.434937 
	C301.610901,1090.407471 301.767059,1109.380005 301.972504,1128.351562 
	C302.259430,1154.852173 309.458984,1179.543335 322.455048,1202.465332 
	C334.898010,1224.411743 354.036346,1239.527222 375.400452,1252.053223 
	C394.274872,1263.119507 414.354126,1270.730957 436.552032,1270.767944 
	C492.198364,1270.860840 547.845154,1270.645874 603.491760,1270.656250 
	C652.153198,1270.665283 700.814575,1270.882324 749.476013,1270.884399 
	C839.621277,1270.888184 929.766602,1270.804688 1019.911865,1270.751953 
	C1044.576782,1270.737549 1069.241699,1270.728516 1093.906494,1270.664917 
	C1103.231323,1270.640869 1112.572754,1270.063843 1121.877197,1270.448975 
	C1142.270752,1271.293213 1162.302856,1270.789307 1181.778564,1263.195923 
	C1218.591431,1248.842896 1247.608521,1226.021606 1264.250488,1189.367676 
	C1270.652588,1175.267090 1276.453125,1160.778198 1276.936646,1145.072266 
	C1277.707397,1120.034180 1278.105347,1094.974121 1278.066895,1069.924316 
	C1278.021973,1040.615356 1277.136841,1011.308289 1276.991699,981.998474 
	C1276.845215,952.445190 1277.102661,922.889282 1277.300293,893.335266 
	C1277.374023,882.303223 1277.937988,871.274109 1277.982544,860.242432 
	C1278.017334,851.653320 1277.340820,843.060120 1277.421021,834.472839 
	C1277.670166,807.873474 1278.397583,781.276672 1278.446289,754.677917 
	C1278.523926,712.286377 1278.210205,669.894165 1278.049194,627.502197 
	C1277.985962,610.849792 1277.890869,594.197510 1277.805542,577.545166 
	C1277.607666,538.892151 1277.260864,500.238983 1277.281738,461.586060 
	C1277.289673,446.811310 1275.025391,432.631012 1271.051270,418.346649 
	C1256.146484,364.773621 1201.071045,314.652802 1134.367432,316.550262 
	C1086.409912,317.914490 1038.382935,316.823517 990.387024,316.851776 
	C864.571228,316.925873 738.755371,317.051788 612.939575,317.077484 
	C556.815796,317.088959 500.691864,316.955902 444.568329,316.785614 
	C429.473511,316.739807 414.908691,318.846466 400.524933,323.838867 
	C368.946136,334.799622 344.371185,354.650482 326.004578,382.051727 
	C308.469055,408.213043 301.148956,437.725525 301.117859,469.034668 
	C300.993805,593.856384 300.986206,718.678223 300.935944,844.500000 
z"/>
<path fill="#FDFDFC" opacity="1.000000" stroke="none" 
	d="
M300.935730,844.000000 
	C300.986206,718.678223 300.993805,593.856384 301.117859,469.034668 
	C301.148956,437.725525 308.469055,408.213043 326.004578,382.051727 
	C344.371185,354.650482 368.946136,334.799622 400.524933,323.838867 
	C414.908691,318.846466 429.473511,316.739807 444.568329,316.785614 
	C500.691864,316.955902 556.815796,317.088959 612.939575,317.077484 
	C738.755371,317.051788 864.571228,316.925873 990.387024,316.851776 
	C1038.382935,316.823517 1086.409912,317.914490 1134.367432,316.550262 
	C1201.071045,314.652802 1256.146484,364.773621 1271.051270,418.346649 
	C1275.025391,432.631012 1277.289673,446.811310 1277.281738,461.586060 
	C1277.260864,500.238983 1277.607666,538.892151 1277.805542,577.545166 
	C1277.890869,594.197510 1277.985962,610.849792 1278.049194,627.502197 
	C1278.210205,669.894165 1278.523926,712.286377 1278.446289,754.677917 
	C1278.397583,781.276672 1277.670166,807.873474 1277.421021,834.472839 
	C1277.340820,843.060120 1278.017334,851.653320 1277.982544,860.242432 
	C1277.937988,871.274109 1277.374023,882.303223 1277.300293,893.335266 
	C1277.102661,922.889282 1276.845215,952.445190 1276.991699,981.998474 
	C1277.136841,1011.308289 1278.021973,1040.615356 1278.066895,1069.924316 
	C1278.105347,1094.974121 1277.707397,1120.034180 1276.936646,1145.072266 
	C1276.453125,1160.778198 1270.652588,1175.267090 1264.250488,1189.367676 
	C1247.608521,1226.021606 1218.591431,1248.842896 1181.778564,1263.195923 
	C1162.302856,1270.789307 1142.270752,1271.293213 1121.877197,1270.448975 
	C1112.572754,1270.063843 1103.231323,1270.640869 1093.906494,1270.664917 
	C1069.241699,1270.728516 1044.576782,1270.737549 1019.911865,1270.751953 
	C929.766602,1270.804688 839.621277,1270.888184 749.476013,1270.884399 
	C700.814575,1270.882324 652.153198,1270.665283 603.491760,1270.656250 
	C547.845154,1270.645874 492.198364,1270.860840 436.552032,1270.767944 
	C414.354126,1270.730957 394.274872,1263.119507 375.400452,1252.053223 
	C354.036346,1239.527222 334.898010,1224.411743 322.455048,1202.465332 
	C309.458984,1179.543335 302.259430,1154.852173 301.972504,1128.351562 
	C301.767059,1109.380005 301.610901,1090.407471 301.552917,1071.434937 
	C301.321716,995.790039 301.137512,920.144958 300.935730,844.000000 
M971.500000,346.086121 
	C901.678040,346.147522 831.856018,346.143341 762.034241,346.296173 
	C723.373779,346.380798 684.713562,346.955627 646.053772,346.907623 
	C575.561035,346.820068 505.068756,346.379944 434.576050,346.281097 
	C429.363342,346.273804 423.898102,347.091187 418.975555,348.771271 
	C388.941101,359.022125 365.180450,377.223480 348.976807,404.882965 
	C338.371613,422.985931 331.340027,442.037567 331.634521,463.363495 
	C331.815643,476.476929 331.755005,489.595032 331.677887,502.710297 
	C331.553558,523.855896 331.277252,545.000671 331.151337,566.146301 
	C330.784119,627.806152 330.224091,689.466187 330.181061,751.126465 
	C330.133026,819.952881 330.530273,888.779846 330.807526,957.606201 
	C331.040466,1015.433655 331.238586,1073.261963 331.762512,1131.087036 
	C331.907806,1147.121094 336.557129,1162.283325 343.996338,1176.430176 
	C354.450836,1196.310913 369.624573,1211.855713 388.416962,1224.127075 
	C405.561523,1235.322388 423.782227,1241.614746 444.625153,1241.244019 
	C476.611389,1240.675171 508.617950,1241.344482 540.615723,1241.311035 
	C632.276306,1241.215454 723.936768,1240.917847 815.597290,1240.910400 
	C922.760986,1240.901855 1029.924683,1241.133789 1137.088379,1241.216431 
	C1156.948853,1241.231689 1174.975220,1234.906860 1191.506958,1224.317749 
	C1213.340332,1210.332886 1228.777222,1190.784180 1238.740356,1167.062866 
	C1243.282959,1156.247559 1247.596436,1145.194946 1247.599487,1133.039062 
	C1247.610474,1088.266724 1247.750366,1043.494263 1247.863403,998.721924 
	C1247.892822,987.072205 1248.063354,975.422668 1248.059814,963.773010 
	C1248.050903,934.528687 1247.988892,905.284424 1247.931030,876.040100 
	C1247.852295,836.266113 1247.697510,796.492188 1247.687988,756.718201 
	C1247.679565,722.059143 1247.895020,687.400146 1247.891602,652.741089 
	C1247.885376,588.578369 1247.807373,524.415649 1247.705078,460.252991 
	C1247.696655,454.937988 1248.009155,449.470581 1246.932739,444.333801 
	C1239.739380,410.006836 1221.084229,383.263184 1192.568359,363.083862 
	C1178.100464,352.845703 1162.355225,346.310059 1144.495483,346.252747 
	C1087.163940,346.068817 1029.831909,346.123871 971.500000,346.086121 
z"/>
<path fill="#030303" opacity="1.000000" stroke="none" 
	d="
M972.000000,346.086426 
	C1029.831909,346.123871 1087.163940,346.068817 1144.495483,346.252747 
	C1162.355225,346.310059 1178.100464,352.845703 1192.568359,363.083862 
	C1221.084229,383.263184 1239.739380,410.006836 1246.932739,444.333801 
	C1248.009155,449.470581 1247.696655,454.937988 1247.705078,460.252991 
	C1247.807373,524.415649 1247.885376,588.578369 1247.891602,652.741089 
	C1247.895020,687.400146 1247.679565,722.059143 1247.687988,756.718201 
	C1247.697510,796.492188 1247.852295,836.266113 1247.931030,876.040100 
	C1247.988892,905.284424 1248.050903,934.528687 1248.059814,963.773010 
	C1248.063354,975.422668 1247.892822,987.072205 1247.863403,998.721924 
	C1247.750366,1043.494263 1247.610474,1088.266724 1247.599487,1133.039062 
	C1247.596436,1145.194946 1243.282959,1156.247559 1238.740356,1167.062866 
	C1228.777222,1190.784180 1213.340332,1210.332886 1191.506958,1224.317749 
	C1174.975220,1234.906860 1156.948853,1241.231689 1137.088379,1241.216431 
	C1029.924683,1241.133789 922.760986,1240.901855 815.597290,1240.910400 
	C723.936768,1240.917847 632.276306,1241.215454 540.615723,1241.311035 
	C508.617950,1241.344482 476.611389,1240.675171 444.625153,1241.244019 
	C423.782227,1241.614746 405.561523,1235.322388 388.416962,1224.127075 
	C369.624573,1211.855713 354.450836,1196.310913 343.996338,1176.430176 
	C336.557129,1162.283325 331.907806,1147.121094 331.762512,1131.087036 
	C331.238586,1073.261963 331.040466,1015.433655 330.807526,957.606201 
	C330.530273,888.779846 330.133026,819.952881 330.181061,751.126465 
	C330.224091,689.466187 330.784119,627.806152 331.151337,566.146301 
	C331.277252,545.000671 331.553558,523.855896 331.677887,502.710297 
	C331.755005,489.595032 331.815643,476.476929 331.634521,463.363495 
	C331.340027,442.037567 338.371613,422.985931 348.976807,404.882965 
	C365.180450,377.223480 388.941101,359.022125 418.975555,348.771271 
	C423.898102,347.091187 429.363342,346.273804 434.576050,346.281097 
	C505.068756,346.379944 575.561035,346.820068 646.053772,346.907623 
	C684.713562,346.955627 723.373779,346.380798 762.034241,346.296173 
	C831.856018,346.143341 901.678040,346.147522 972.000000,346.086426 
M1130.578369,1194.101685 
	C1145.196533,1190.095825 1158.772461,1183.658813 1170.229736,1173.861328 
	C1193.397339,1154.050049 1206.371460,1129.442993 1205.496948,1097.957153 
	C1204.381958,1057.817383 1204.310913,1017.647827 1203.963867,977.489563 
	C1203.936646,974.346741 1202.826172,972.451904 1200.124878,972.145935 
	C1194.708740,971.532654 1189.230957,971.459534 1183.777710,971.180847 
	C1179.350464,970.954651 1177.057373,972.659363 1177.115479,977.510315 
	C1177.244507,988.281738 1176.966431,999.057312 1176.980957,1009.830994 
	C1177.021484,1039.825928 1177.391113,1069.824219 1177.005005,1099.813232 
	C1176.917480,1106.601440 1175.500854,1113.948486 1172.544556,1119.984619 
	C1168.420410,1128.405640 1162.880371,1136.339600 1156.868530,1143.588257 
	C1142.887207,1160.445801 1125.008423,1169.715210 1102.594238,1169.421021 
	C1085.603882,1169.197998 1068.607056,1169.481445 1051.613159,1169.479858 
	C967.126465,1169.472168 882.639709,1169.423340 798.153015,1169.429199 
	C690.503967,1169.436768 582.854858,1169.522827 475.205994,1169.418213 
	C468.452759,1169.411621 461.395630,1169.054688 455.006134,1167.121460 
	C436.600464,1161.552490 422.906525,1149.469604 412.317596,1133.659912 
	C402.603027,1119.155762 399.316254,1102.734985 399.219208,1085.761475 
	C399.077972,1061.063232 399.969635,1036.360718 400.118073,1011.658264 
	C400.186371,1000.291199 399.613007,988.916382 399.095703,977.555725 
	C399.042938,976.397095 397.500336,974.504761 396.428345,974.333313 
	C391.876038,973.605225 387.245117,973.133850 382.634430,973.053345 
	C372.079529,972.869019 372.414154,972.983643 372.434235,983.557678 
	C372.456635,995.351929 371.605286,1007.145386 371.464905,1018.943054 
	C371.311798,1031.812866 371.392792,1044.689819 371.635284,1057.558716 
	C371.939453,1073.704346 372.322296,1089.853149 373.025330,1105.985107 
	C373.632477,1119.917603 376.920441,1133.477417 384.063660,1145.358276 
	C404.616211,1179.542480 435.254944,1197.543213 475.195923,1197.646729 
	C587.847656,1197.938354 700.500732,1197.658936 813.153320,1197.628662 
	C904.307800,1197.604126 995.462708,1197.759399 1086.616211,1197.460938 
	C1101.007812,1197.413818 1115.392822,1195.386963 1130.578369,1194.101685 
M446.733124,389.958466 
	C430.801056,394.627075 415.910522,401.073792 403.877686,413.116699 
	C384.345428,432.665131 372.790405,455.534302 372.933777,483.690063 
	C373.074615,511.352936 372.884094,539.017761 373.083618,566.679932 
	C373.156830,576.832520 373.826141,586.986877 374.488678,597.123108 
	C374.598541,598.804260 375.830231,601.594910 376.960388,601.824951 
	C382.286682,602.909119 387.777039,603.903687 393.172729,603.739990 
	C399.231537,603.556091 400.937378,600.978027 400.944946,594.626465 
	C400.986847,559.464844 401.011902,524.303162 401.050354,489.141510 
	C401.052704,486.978027 400.827545,484.762177 401.203949,482.659424 
	C404.358215,465.039520 411.706879,449.515656 424.305084,436.589111 
	C436.123871,424.462311 449.693390,416.525116 467.301849,416.727295 
	C480.929596,416.883759 494.566162,416.397095 508.197113,416.113007 
	C523.158569,415.801239 538.116516,415.193451 553.078735,415.077972 
	C572.892151,414.925018 592.709290,415.016235 612.523010,415.197937 
	C642.828613,415.475800 673.131714,416.081055 703.437561,416.249512 
	C733.740601,416.417938 764.045776,416.240387 794.349915,416.177185 
	C820.409485,416.122864 846.469299,416.070862 872.528381,415.914886 
	C893.504883,415.789307 914.482300,415.225403 935.455933,415.365326 
	C966.906555,415.575073 998.352844,416.392334 1029.803467,416.648499 
	C1057.289551,416.872406 1084.778931,416.657715 1112.266846,416.694092 
	C1115.919556,416.698944 1119.791748,416.316223 1123.188599,417.345825 
	C1144.999268,423.957031 1160.802002,437.791992 1170.974976,458.143921 
	C1176.353149,468.903564 1176.877563,480.600311 1176.858765,492.182098 
	C1176.805054,525.325317 1176.236084,558.467529 1175.908325,591.610535 
	C1175.840820,598.439087 1179.010742,602.959351 1185.704956,603.683167 
	C1190.325928,604.182861 1195.170654,603.007690 1199.867798,602.275330 
	C1203.194702,601.756592 1204.096313,599.450317 1204.108032,596.116394 
	C1204.244629,557.291321 1205.132324,518.458130 1204.583618,479.644653 
	C1204.107300,445.953278 1188.948853,419.648529 1160.272095,401.670197 
	C1141.877197,390.137817 1121.124023,387.475403 1099.959351,387.293091 
	C1073.198486,387.062561 1046.435059,387.114685 1019.672729,387.080566 
	C991.385864,387.044525 963.098633,386.955322 934.812378,387.078369 
	C920.820312,387.139221 906.830566,387.854828 892.839050,387.880157 
	C817.020935,388.017395 741.202332,388.168976 665.384399,388.039398 
	C615.402100,387.954010 565.419617,387.071442 515.439087,387.209991 
	C492.821198,387.272736 470.207794,388.950043 446.733124,389.958466 
M904.500000,661.857788 
	C1005.068176,661.857788 1105.636353,661.857788 1206.047852,661.857788 
	C1206.047852,652.133362 1206.047852,643.093323 1206.047852,633.513672 
	C928.516785,633.513672 651.688660,633.513672 374.018494,633.513672 
	C374.018494,642.896790 374.018494,652.086853 374.018494,661.858765 
	C550.318665,661.858765 726.909363,661.858765 904.500000,661.857788 
M834.500000,914.929321 
	C680.867065,914.929321 527.234192,914.929321 373.243561,914.929321 
	C373.243561,924.482544 373.243561,933.372070 373.243561,942.614563 
	C650.619263,942.614563 927.714478,942.614563 1205.423584,942.614563 
	C1205.423584,933.116882 1205.423584,923.703369 1205.423584,914.929993 
	C1082.299927,914.929993 958.899963,914.929993 834.500000,914.929321 
M906.561035,808.911255 
	C917.481628,830.447632 927.162598,852.458191 932.049683,875.825867 
	C952.910950,817.691101 971.860291,758.557068 997.022888,702.744141 
	C987.680481,702.744141 977.893433,702.649902 968.113037,702.862488 
	C966.879639,702.889282 965.093933,704.266541 964.561401,705.462219 
	C960.916321,713.646973 957.201660,721.828064 954.139832,730.239746 
	C946.762329,750.507507 939.742432,770.905212 932.528931,791.232910 
	C932.095520,792.454163 931.228699,793.521667 930.166321,795.340881 
	C928.396729,790.187805 927.189697,785.905823 925.482666,781.833435 
	C917.852844,763.632019 909.903625,745.562561 902.448914,727.290771 
	C899.571777,720.238770 897.700195,712.776550 895.391235,705.565979 
	C889.112183,736.402100 875.902771,765.085938 865.266052,795.137390 
	C864.529236,793.775635 863.873169,792.827454 863.471436,791.781616 
	C854.667358,768.862793 845.920166,745.922180 837.090576,723.013306 
	C834.823730,717.131775 832.443542,711.284668 829.826111,705.553772 
	C829.165100,704.106384 827.428833,702.205078 826.120972,702.152771 
	C818.201416,701.836121 810.262939,701.995056 801.155579,701.995056 
	C822.353577,759.208618 843.229675,815.553589 864.399719,872.691772 
	C876.067078,846.686829 887.512085,821.177429 899.558594,794.327454 
	C902.125977,799.739258 904.148254,804.001892 906.561035,808.911255 
M699.187988,772.677551 
	C702.353027,763.568176 702.483582,754.495422 701.349243,744.799500 
	C698.013916,716.288940 678.641418,704.416016 653.577637,702.994324 
	C637.629272,702.089661 621.598022,702.633911 605.603760,702.568176 
	C603.729370,702.560486 601.854004,702.805847 601.245911,702.847351 
	C600.523315,710.587952 599.484131,717.447388 599.316040,724.328125 
	C598.823975,744.471313 598.502747,764.622559 598.451355,784.771423 
	C598.407166,802.094910 599.218445,819.426697 598.907166,836.741455 
	C598.687744,848.950745 600.456848,860.724365 603.789795,873.172302 
	C611.636414,872.784363 619.635742,872.388977 627.003296,872.024780 
	C627.003296,849.554565 627.003296,827.997192 627.003296,805.978149 
	C630.815491,805.638245 635.222351,806.077209 638.936646,804.677917 
	C642.578674,803.305725 643.661011,804.616089 645.008789,807.239929 
	C647.206299,811.518005 649.732788,815.637207 651.757568,819.992188 
	C659.300720,836.215942 666.643921,852.532776 674.233582,868.734436 
	C674.934448,870.230347 676.821167,872.145874 678.208740,872.188354 
	C687.980835,872.487732 697.766541,872.347229 708.033997,872.347229 
	C703.495972,863.308044 698.660889,854.275330 694.371277,844.990601 
	C688.186279,831.603271 682.400757,818.031494 676.437012,804.541870 
	C674.742249,800.708252 676.179443,798.246521 679.717896,796.482483 
	C689.478882,791.616455 695.693787,783.738831 699.187988,772.677551 
M472.258850,871.018616 
	C473.400970,869.010315 474.702179,867.074585 475.657593,864.981079 
	C479.720886,856.077637 483.870148,847.204834 487.589935,838.157166 
	C489.136108,834.396362 491.442932,833.507141 495.190430,833.530518 
	C511.346436,833.631531 527.505920,833.593506 543.659790,833.332703 
	C548.000488,833.262634 549.762878,835.194458 551.007690,839.014038 
	C554.188354,848.773254 557.661316,858.439514 561.181885,868.082886 
	C561.697510,869.495239 563.077515,871.616577 564.116882,871.651733 
	C572.690369,871.940979 581.277893,871.815186 590.036499,871.815186 
	C586.528992,861.034546 583.861755,850.168640 579.529175,840.013184 
	C565.726379,807.659180 551.287476,775.576843 537.128601,743.374451 
	C530.337097,727.928162 523.622681,712.447876 517.059204,697.408691 
	C495.575073,756.671631 467.181213,813.980164 440.977600,872.940674 
	C450.563568,872.940674 459.050507,873.003235 467.534729,872.877869 
	C468.916168,872.857422 470.285309,872.005371 472.258850,871.018616 
M1024.750488,717.115906 
	C1013.606506,742.837524 1001.881958,768.327148 991.482361,794.346313 
	C981.161377,820.168701 967.938232,844.841064 959.638977,871.377380 
	C969.475037,871.377380 978.439270,871.512268 987.391479,871.243774 
	C988.873901,871.199341 991.066956,869.709839 991.635559,868.347229 
	C995.908630,858.107483 1000.140747,847.829468 1003.734253,837.340271 
	C1004.817627,834.178040 1006.039429,833.715881 1008.893188,833.735657 
	C1023.378296,833.835876 1037.864746,833.729309 1052.350830,833.700623 
	C1056.931152,833.691528 1061.511475,833.699158 1064.442017,833.699158 
	C1068.936890,845.831848 1073.010498,856.783325 1077.047363,867.748474 
	C1078.428467,871.500122 1079.883667,874.231750 1084.849365,871.739746 
	C1086.756592,870.782654 1089.686646,871.834778 1092.147339,872.015015 
	C1097.512695,872.407898 1102.875977,872.828796 1108.700439,873.273376 
	C1108.336670,871.574097 1108.300049,870.725403 1107.979126,870.003296 
	C1099.356323,850.605164 1090.668579,831.235962 1082.065796,811.828979 
	C1068.816406,781.939758 1055.435547,752.106384 1042.514038,722.075684 
	C1038.470825,712.679138 1035.728760,702.722656 1032.406982,693.068176 
	C1029.977905,700.664673 1027.469116,708.510559 1024.750488,717.115906 
M722.408691,775.497070 
	C722.179382,785.489014 721.885376,795.480042 721.734436,805.473145 
	C721.435181,825.291321 721.130066,845.110168 721.009521,864.929810 
	C720.969177,871.554565 722.648438,872.958191 729.173828,872.956482 
	C753.669678,872.950134 778.165588,872.937805 802.661438,872.928223 
	C805.935791,872.926880 809.210144,872.928040 811.902100,872.928040 
	C811.902100,862.585632 811.902100,852.911194 811.902100,843.859741 
	C789.917419,843.859741 768.885498,843.859741 748.018799,843.859741 
	C748.018799,828.941223 748.018799,814.196167 748.018799,798.838501 
	C764.028564,798.838501 779.562439,798.838501 795.465271,798.838501 
	C794.338196,788.726013 793.284180,779.268860 792.228271,769.794739 
	C777.105591,769.794739 762.226074,769.794739 748.251526,769.794739 
	C748.251526,756.540710 748.251526,743.898560 748.251526,731.680664 
	C762.828613,731.680664 776.153687,731.680664 790.266968,731.680664 
	C787.419800,723.081726 784.594177,715.126038 782.201538,707.042175 
	C781.218201,703.719727 779.711975,702.666870 776.229980,702.703613 
	C758.103699,702.895447 739.974182,702.793030 722.366028,702.793030 
	C722.366028,726.432190 722.366028,750.464478 722.408691,775.497070 
M1133.791626,1007.715698 
	C1132.886841,1006.739807 1131.986206,1005.760071 1131.076538,1004.788757 
	C1120.678833,993.684998 1108.069580,986.263367 1092.775391,986.052612 
	C1077.762451,985.845703 1063.478882,990.318420 1051.425171,999.555969 
	C1027.960205,1017.538452 1019.950500,1041.186890 1027.056763,1069.943359 
	C1035.640137,1104.677002 1069.348633,1128.149414 1104.382446,1119.104126 
	C1125.052856,1113.767456 1139.029175,1100.333252 1145.892578,1080.381958 
	C1149.914062,1068.692261 1151.473022,1056.630737 1149.521240,1043.716919 
	C1147.473633,1030.169556 1142.773438,1018.603882 1133.791626,1007.715698 
M457.665070,1112.938965 
	C471.937256,1120.633423 486.791321,1123.028809 502.831726,1119.271973 
	C518.832458,1115.524414 531.169373,1107.086060 539.033813,1092.786987 
	C548.118042,1076.270020 549.708679,1058.443848 546.263489,1040.120728 
	C542.490540,1020.053894 532.723450,1003.926270 514.375427,993.976868 
	C496.936981,984.520752 478.888214,983.304138 460.883423,992.094482 
	C436.423309,1004.036560 420.295227,1035.654907 424.511566,1062.597778 
	C427.874207,1084.085693 438.134796,1101.155396 457.665070,1112.938965 
M537.879089,569.338257 
	C543.251770,560.296509 546.964417,551.075989 548.131653,540.143799 
	C549.183716,530.289734 548.052429,520.993225 546.589661,511.640503 
	C544.937927,501.079559 538.902100,492.297241 532.399109,484.002502 
	C512.584473,458.728271 478.985443,452.593964 453.159119,473.557220 
	C436.260559,487.273895 426.014587,504.649658 424.822754,526.844055 
	C424.227203,537.935181 425.590454,548.635071 430.335297,558.739014 
	C439.825775,578.948730 472.388458,600.828918 500.318176,593.427795 
	C515.539917,589.394226 528.837646,583.715271 537.879089,569.338257 
M1111.576050,590.130371 
	C1125.011841,585.334290 1135.234375,576.393188 1141.931152,564.125610 
	C1148.867188,551.419922 1151.158203,537.775696 1149.552979,522.898926 
	C1148.114502,509.567993 1144.729370,497.599396 1136.852539,486.880981 
	C1123.236084,468.352509 1106.081299,457.364685 1082.021973,461.857117 
	C1064.548218,465.119904 1049.944092,473.599518 1039.053589,487.687195 
	C1016.687439,516.619507 1022.793701,558.627930 1050.227783,580.671753 
	C1060.572998,588.984375 1072.335083,593.795593 1085.631104,594.943420 
	C1094.492676,595.708374 1102.671509,593.091003 1111.576050,590.130371 
M404.105164,839.814880 
	C404.080322,836.355652 404.033386,832.896423 404.034973,829.437195 
	C404.039093,820.610474 404.282166,811.776428 403.987549,802.960144 
	C403.846436,798.737366 405.199707,797.419495 409.351837,797.658875 
	C420.435822,798.298035 431.534790,798.794495 442.634369,799.011902 
	C453.012390,799.215149 453.049713,799.032043 454.983276,788.946533 
	C456.301819,782.068909 457.510193,775.170227 458.749573,768.381226 
	C441.125916,768.381226 423.725159,768.381226 405.598389,768.381226 
	C405.598389,755.965515 405.598389,743.728638 405.598389,730.972473 
	C409.963928,731.330444 414.685150,732.089294 419.397186,732.035950 
	C435.030792,731.859009 450.663910,731.468323 466.288116,730.906799 
	C467.797852,730.852478 470.304657,729.252747 470.548950,728.015198 
	C472.173401,719.784607 473.307495,711.457336 474.682037,702.641968 
	C441.684204,702.641968 408.832581,702.641968 377.251556,702.641968 
	C377.798492,712.640076 378.787903,722.665405 378.819305,732.693787 
	C378.956390,776.479980 378.815155,820.266968 378.775513,864.053711 
	C378.773010,866.826782 378.775146,869.599915 378.775146,872.520142 
	C387.926849,872.520142 396.302887,872.520142 404.080170,872.520142 
	C404.080170,861.668884 404.080170,851.213867 404.105164,839.814880 
M1104.302734,761.153503 
	C1110.171753,770.784058 1116.115723,780.369995 1121.868896,790.069336 
	C1123.876709,793.454407 1126.617676,797.010681 1126.947510,800.675659 
	C1128.105835,813.548401 1128.522827,826.497620 1128.903442,839.427185 
	C1129.172729,848.579224 1128.912842,857.746399 1128.927856,866.906799 
	C1128.931030,868.836792 1129.103149,870.766541 1129.198853,872.728149 
	C1136.580322,872.728149 1143.380493,872.761719 1150.180298,872.718750 
	C1157.127197,872.674805 1157.066406,872.643738 1156.868530,865.630066 
	C1156.272339,844.496582 1155.676392,823.362793 1155.239136,802.225830 
	C1155.193848,800.037476 1155.723389,797.542236 1156.814087,795.672180 
	C1165.427124,780.903503 1174.352173,766.316650 1182.962524,751.546448 
	C1191.568604,736.783813 1199.904175,721.863647 1208.408936,707.041626 
	C1209.434814,705.254028 1210.777222,703.648193 1212.495117,701.219971 
	C1208.307861,701.219971 1204.963623,700.712708 1201.838379,701.324280 
	C1195.073242,702.648071 1188.503418,703.485901 1181.719482,701.171143 
	C1180.339600,700.700256 1177.299805,702.016907 1176.505005,703.375427 
	C1166.280396,720.851318 1156.358643,738.503967 1146.269897,756.059998 
	C1144.413818,759.289734 1142.156494,762.288879 1139.860596,765.729736 
	C1138.635132,764.289429 1137.889282,763.611267 1137.381348,762.786621 
	C1126.405640,744.969360 1115.393799,727.173828 1104.546143,709.278748 
	C1101.790649,704.732971 1098.951172,701.367371 1092.813477,702.731689 
	C1090.155884,703.322388 1087.185791,702.599487 1084.367798,702.356750 
	C1079.340576,701.923584 1074.321045,701.401917 1068.425171,700.833008 
	C1072.398560,708.082825 1075.651978,714.542725 1079.381348,720.714966 
	C1087.442383,734.056519 1095.747314,747.250671 1104.302734,761.153503 
M642.949402,1117.496094 
	C642.932556,1120.326904 643.227600,1123.202515 642.829163,1125.978516 
	C642.151855,1130.697754 644.188477,1134.314575 646.853027,1137.776978 
	C649.797546,1141.603271 652.910461,1142.086304 656.705688,1139.364136 
	C661.667908,1135.805176 663.063477,1130.666138 663.029175,1124.918091 
	C662.906189,1104.308594 662.705505,1083.699341 662.664612,1063.089722 
	C662.612305,1036.728271 662.715820,1010.366516 662.653687,984.005127 
	C662.648315,981.722656 662.667969,978.738647 661.346436,977.312927 
	C658.909546,974.683899 655.582458,971.564209 652.439697,971.346985 
	C650.171936,971.190125 646.400024,974.983032 645.432373,977.758240 
	C643.734985,982.626038 643.047180,988.061646 643.026062,993.263916 
	C642.859314,1034.341797 642.950562,1075.420898 642.949402,1117.496094 
M623.228882,1033.419800 
	C623.087036,1016.113159 623.000122,998.805847 622.767883,981.500427 
	C622.703308,976.686401 617.127380,970.750916 613.232178,970.933533 
	C608.623596,971.149475 604.084595,976.270691 604.071777,981.520020 
	C604.015076,1004.821289 604.015686,1028.122803 604.004028,1051.424194 
	C603.990906,1077.721802 604.012146,1104.019287 603.957520,1130.316895 
	C603.946655,1135.568237 607.165466,1139.035522 611.279175,1140.519165 
	C613.205994,1141.214111 617.242615,1138.786865 618.950378,1136.668091 
	C621.056641,1134.054932 622.820984,1130.301758 622.858398,1127.019775 
	C623.210571,1096.146851 623.162292,1065.269165 623.228882,1033.419800 
M969.567322,1008.500366 
	C969.529114,999.004822 969.621094,989.506226 969.393127,980.015198 
	C969.292419,975.822327 965.218872,970.916931 961.825073,970.600464 
	C957.383118,970.186157 954.015686,972.360229 952.076477,976.187317 
	C951.161499,977.993042 951.008484,980.330383 951.001038,982.428650 
	C950.874268,1018.085327 950.804321,1053.742310 950.768860,1089.399170 
	C950.755981,1102.394653 950.829468,1115.390503 950.938965,1128.385620 
	C950.976624,1132.854858 955.520020,1139.358032 959.098877,1139.895020 
	C963.621277,1140.573608 966.244873,1137.483521 968.204468,1134.166748 
	C969.220093,1132.447754 969.427002,1130.053955 969.432129,1127.963623 
	C969.528748,1088.475952 969.540405,1048.988159 969.567322,1008.500366 
M874.061951,1090.499878 
	C874.146912,1102.657349 873.945190,1114.827881 874.503235,1126.963623 
	C874.657227,1130.312256 876.478027,1134.020996 878.592712,1136.741577 
	C881.850952,1140.933594 886.020630,1140.754639 888.811279,1136.226929 
	C890.899170,1132.839478 892.451111,1128.643433 892.712341,1124.705811 
	C893.299622,1115.854614 892.948364,1106.940552 892.955566,1098.052002 
	C892.961975,1090.173096 893.021179,1082.293091 892.910522,1074.415649 
	C892.463623,1042.608521 892.203003,1010.793640 891.101624,979.008362 
	C890.991516,975.832458 886.080261,972.111084 882.577454,970.008850 
	C880.146973,968.550049 875.326294,973.903320 874.653198,978.078003 
	C874.547607,978.732849 874.511169,979.403137 874.494812,980.067505 
	C874.301514,987.889832 873.966431,995.712219 873.959412,1003.534851 
	C873.933716,1032.189697 874.018127,1060.844604 874.061951,1090.499878 
M565.644653,1004.968323 
	C566.025024,1026.948120 566.764221,1048.929443 566.675293,1070.907349 
	C566.600586,1089.377808 565.680786,1107.849609 564.883545,1126.309937 
	C564.610291,1132.638184 568.104492,1136.656006 572.465149,1140.057251 
	C573.623718,1140.960815 576.657104,1140.673340 578.111511,1139.772827 
	C584.041687,1136.100952 584.857483,1129.744751 584.885193,1123.645630 
	C585.007019,1096.878296 584.937927,1070.108398 584.676575,1043.341919 
	C584.474854,1022.690674 583.912354,1002.042542 583.449036,981.394409 
	C583.319946,975.639099 579.028748,970.894409 574.193359,970.891296 
	C569.384460,970.888184 565.385376,975.239624 565.314697,981.069214 
	C565.221924,988.722168 565.450989,996.379150 565.644653,1004.968323 
M623.820557,454.101013 
	C623.172180,452.941956 622.780334,451.470673 621.824707,450.685699 
	C619.499390,448.775757 616.529480,445.433563 614.520203,445.873047 
	C611.471191,446.539917 608.756104,449.687378 606.427734,452.259521 
	C605.394409,453.401062 605.382446,455.708008 605.362671,457.491028 
	C604.877380,501.280975 604.645081,545.075195 603.816467,588.858215 
	C603.689026,595.596375 606.154419,599.955139 610.883911,603.641846 
	C612.028442,604.534119 614.891479,605.052246 615.593872,604.357300 
	C618.303345,601.676514 621.493896,598.757935 622.565674,595.322876 
	C624.014160,590.680420 624.072632,585.477051 624.028931,580.520447 
	C623.905884,566.569397 623.296143,552.622803 623.157104,538.671631 
	C623.109436,533.880127 624.135437,529.085571 624.233337,524.283447 
	C624.430176,514.627930 624.374939,504.966034 624.334778,495.307159 
	C624.278748,481.827850 624.141418,468.348938 623.820557,454.101013 
M931.109253,1064.536865 
	C930.996643,1037.270142 930.884949,1010.003357 930.767151,982.736572 
	C930.763550,981.905090 931.015259,980.838318 930.604858,980.281616 
	C928.322693,977.185791 926.388123,973.239441 923.272705,971.591431 
	C921.598694,970.705872 917.455933,973.413818 915.091492,975.322998 
	C913.747498,976.408203 913.225708,979.149170 913.211487,981.150635 
	C912.867126,1029.555908 912.625366,1077.962036 912.453186,1126.368286 
	C912.446289,1128.304810 912.753113,1130.682373 913.873657,1132.090942 
	C916.155273,1134.958496 918.966736,1139.136719 921.796814,1139.331177 
	C924.443726,1139.513428 928.783264,1135.764771 929.894226,1132.811768 
	C931.608154,1128.255981 931.625000,1122.902954 931.621521,1117.888550 
	C931.609192,1100.434204 931.278564,1082.980103 931.109253,1064.536865 
M842.677734,970.772949 
	C837.744019,972.745483 835.001282,976.133667 834.994568,981.698303 
	C834.987915,987.177795 834.842224,992.680359 834.317200,998.130432 
	C833.555908,1006.033691 831.900024,1013.874268 834.840942,1021.723938 
	C835.865173,1024.457764 836.978210,1027.473877 836.808289,1030.286011 
	C836.003906,1043.594849 839.684998,1057.216553 834.112366,1070.223511 
	C833.493103,1071.668823 833.577148,1073.507812 833.662659,1075.147095 
	C834.060303,1082.768188 834.786072,1090.377686 834.989075,1098.001953 
	C835.223755,1106.820801 835.352356,1115.666992 834.906738,1124.469849 
	C834.651245,1129.516724 837.081665,1133.044434 839.816956,1136.526001 
	C841.970581,1139.267090 844.968933,1139.507935 847.748901,1137.328369 
	C851.858398,1134.106201 854.650513,1130.136841 854.068665,1124.527344 
	C853.606323,1120.070557 852.861633,1115.607056 852.850708,1111.145020 
	C852.745789,1068.357544 852.787354,1025.569580 852.740784,982.781860 
	C852.733032,975.702209 850.450378,972.866699 842.677734,970.772949 
M969.526184,464.566101 
	C969.461304,461.237152 970.239075,457.580536 969.106201,454.666840 
	C967.849060,451.433777 965.394592,447.843689 962.464661,446.295776 
	C958.949890,444.438934 955.293457,446.991150 953.318726,450.369598 
	C952.047974,452.543701 951.027649,455.247192 951.017334,457.718079 
	C950.830261,502.512726 950.806519,547.308105 950.771423,592.103271 
	C950.767456,597.182983 956.449280,604.443359 960.713196,604.968079 
	C964.002502,605.372986 968.268066,600.684631 969.721497,594.865784 
	C970.119446,593.272522 970.247925,591.572693 970.239136,589.923096 
	C970.018616,548.464478 969.763245,507.006134 969.526184,464.566101 
M887.148560,602.908569 
	C891.447876,599.124084 892.979065,594.327087 892.941101,588.668335 
	C892.647705,544.950012 892.470886,501.230896 892.233276,457.512207 
	C892.194763,450.420319 888.536926,445.511658 883.504272,445.601013 
	C878.262573,445.694092 874.786499,450.270752 874.557922,457.382812 
	C874.541870,457.882233 874.534424,458.382111 874.533508,458.881775 
	C874.454407,501.691071 874.370239,544.500366 874.314758,587.309692 
	C874.311768,589.635010 874.343567,591.994202 874.715820,594.279480 
	C875.663940,600.099854 881.421814,604.433350 887.148560,602.908569 
M701.722839,1095.078491 
	C701.797424,1094.249512 701.943726,1093.419922 701.936401,1092.591675 
	C701.604248,1054.988403 701.258545,1017.385254 700.914124,979.782104 
	C700.912598,979.615662 700.976990,979.380920 700.891785,979.292725 
	C697.903259,976.197205 694.940063,973.073730 691.818787,970.117249 
	C691.588318,969.898987 690.113037,970.779541 689.372375,971.351135 
	C685.128845,974.626038 683.531128,978.822937 683.548828,984.322327 
	C683.703857,1032.426514 683.618958,1080.531616 683.591003,1128.636353 
	C683.587463,1134.767944 687.632324,1140.475830 692.018677,1140.409424 
	C696.770996,1140.337646 700.721741,1135.263794 700.942322,1128.934448 
	C700.977112,1127.936523 700.957764,1126.937012 700.976990,1125.938354 
	C701.169067,1115.960083 701.363953,1105.981934 701.722839,1095.078491 
M852.355835,596.630615 
	C852.675232,593.087585 853.220581,589.548096 853.275879,586.000916 
	C853.551880,568.321899 853.804138,550.641113 853.846924,532.960388 
	C853.868225,524.184570 853.221375,515.407471 853.228821,506.631256 
	C853.243225,489.707886 853.577820,472.784882 853.623169,455.861328 
	C853.635803,451.137634 848.060974,444.689667 844.148560,445.110046 
	C839.392761,445.621063 837.160095,449.006805 836.687195,453.665436 
	C836.185425,458.609283 835.247742,463.531006 835.081238,468.481964 
	C834.773560,477.628387 834.822510,486.789337 834.853821,495.943756 
	C834.873962,501.818665 834.131775,507.933899 835.482910,513.517517 
	C838.383545,525.504028 838.869995,537.895935 836.247986,549.304749 
	C832.953979,563.637817 834.126282,577.608765 834.548340,591.749146 
	C834.710510,597.181519 838.957092,600.689209 843.891235,602.372559 
	C848.126770,603.817505 849.822021,599.888794 852.355835,596.630615 
M913.109741,547.501282 
	C912.667297,562.288025 912.220947,577.074646 911.784485,591.861572 
	C911.648254,596.476501 915.715454,602.053955 920.247009,603.792236 
	C925.155579,605.675232 927.476868,602.041443 929.497986,599.033203 
	C931.035828,596.744202 932.020813,593.588745 932.003052,590.826843 
	C931.837769,565.216187 931.324524,539.608093 931.069031,513.997620 
	C930.881714,495.222656 930.999878,476.444733 930.825684,457.669556 
	C930.778015,452.533905 928.527832,448.114471 923.777527,445.944397 
	C919.808228,444.131104 917.102783,447.527374 915.144592,450.159790 
	C913.721863,452.072418 913.215210,455.057953 913.203857,457.569244 
	C913.069763,487.212769 913.106079,516.857056 913.109741,547.501282 
M1006.845581,1110.500000 
	C1006.885132,1077.350342 1006.938965,1044.200684 1006.955994,1011.051086 
	C1006.961243,1000.723022 1006.936279,990.393982 1006.789124,980.067322 
	C1006.715271,974.882263 1002.267517,969.664673 998.897278,970.473816 
	C993.182861,971.845764 989.987915,975.819214 989.943420,981.775452 
	C989.583740,1029.901978 989.171997,1078.028198 989.043884,1126.155396 
	C989.034790,1129.564819 990.580383,1133.331299 992.409912,1136.314209 
	C995.561646,1141.453003 999.319458,1141.627319 1003.016296,1136.714600 
	C1005.051514,1134.010010 1006.419495,1130.349976 1006.815430,1126.971558 
	C1007.411865,1121.882812 1006.893494,1116.663574 1006.845581,1110.500000 
M739.986267,1108.517212 
	C740.209167,1103.192383 740.522339,1097.869385 740.633972,1092.542236 
	C740.804443,1084.401367 741.153076,1076.244629 740.819519,1068.119507 
	C740.580444,1062.295044 738.551819,1056.488647 738.717590,1050.714111 
	C739.135010,1036.167603 740.695923,1021.653625 741.103638,1007.107239 
	C741.358215,998.024658 741.150879,988.758179 739.501648,979.880554 
	C738.873291,976.498047 733.959900,973.347717 730.295776,971.449890 
	C729.249146,970.907654 725.470947,974.905151 723.475342,977.268555 
	C722.603333,978.301392 722.918091,980.461792 722.942078,982.106506 
	C723.207214,1000.258911 723.779541,1018.410950 723.755066,1036.562378 
	C723.725830,1058.204346 723.285706,1079.847656 722.825073,1101.486084 
	C722.698242,1107.446167 722.094238,1113.422363 721.290466,1119.334351 
	C720.432861,1125.641846 722.177185,1131.228149 725.471741,1136.332764 
	C728.480286,1140.994507 732.146118,1141.386230 735.490417,1137.060791 
	C737.671021,1134.240479 739.353271,1130.492676 739.779541,1126.980957 
	C740.477112,1121.234863 739.969666,1115.342529 739.986267,1108.517212 
M585.034241,499.500000 
	C585.025696,485.837372 585.205566,472.170135 584.872314,458.515442 
	C584.792053,455.224792 583.700317,451.470062 581.790710,448.871674 
	C580.334106,446.889618 576.277588,444.880615 574.399536,445.589783 
	C571.414062,446.717072 567.487183,449.851379 567.109619,452.573761 
	C565.766418,462.258972 565.136658,472.144226 565.381348,481.925140 
	C565.758972,497.024628 567.695068,512.094360 567.845703,527.187927 
	C568.035034,546.156250 567.056274,565.135132 566.661743,584.111145 
	C566.575623,588.252136 566.496338,592.442505 567.016541,596.533447 
	C567.569153,600.878235 570.553833,604.320679 574.706116,604.522095 
	C577.032349,604.634949 580.348938,601.953491 581.728210,599.641418 
	C583.581421,596.535156 584.858582,592.576721 584.888611,588.971619 
	C585.134094,559.482727 585.031738,529.990906 585.034241,499.500000 
M722.977539,452.744720 
	C722.330200,458.810272 721.124146,464.880157 721.171692,470.940277 
	C721.236633,479.229065 722.747131,487.508820 722.772583,495.795135 
	C722.852112,521.621643 722.470947,547.449280 722.388428,573.276855 
	C722.365601,580.408936 721.985291,587.689087 723.294067,594.613037 
	C723.943665,598.049561 727.532654,602.046936 730.794434,603.435425 
	C732.618713,604.211914 736.928833,600.590027 739.286499,598.146851 
	C740.766235,596.613403 741.119812,593.612061 741.246521,591.230347 
	C741.546997,585.579956 740.273010,579.594543 741.719055,574.315186 
	C743.889343,566.391418 741.414185,559.245117 740.589783,551.744995 
	C739.670715,543.383362 737.882263,534.726501 739.141296,526.612244 
	C740.833130,515.708252 741.967346,504.986755 741.250793,493.996063 
	C740.395203,480.873993 739.931274,467.725891 739.021240,454.608246 
	C738.692810,449.874084 734.602234,445.375397 730.761108,445.195038 
	C726.262573,444.983856 724.761169,448.672058 722.977539,452.744720 
M1006.614319,451.442993 
	C1004.410583,449.271973 1002.411438,445.597900 999.957642,445.263947 
	C995.729370,444.688477 992.513855,448.059631 991.428711,452.223053 
	C990.477539,455.872681 990.032532,459.752197 990.019836,463.532379 
	C989.943787,486.173828 990.208984,508.816956 990.059387,531.457520 
	C989.939514,549.604553 989.333923,567.748108 989.090210,585.895142 
	C989.046082,589.183533 989.372131,592.560852 990.123901,595.756775 
	C991.300232,600.757202 995.864685,604.622070 999.412720,604.208313 
	C1002.252563,603.877197 1006.695984,597.792236 1006.872681,593.937073 
	C1007.549133,579.180237 1008.862061,564.417480 1008.744934,549.666443 
	C1008.487122,517.198181 1007.504517,484.735535 1006.614319,451.442993 
M644.917114,583.486877 
	C644.924866,587.317505 644.589294,591.188110 645.029968,594.968262 
	C645.544983,599.386169 648.156616,602.763306 652.509644,603.991577 
	C656.658020,605.162170 659.016602,602.069763 660.819946,599.045532 
	C661.694519,597.578796 661.832275,595.539185 661.896484,593.744324 
	C662.318970,581.934143 662.876282,570.121094 662.931519,558.306824 
	C663.087891,524.848694 662.993103,491.389374 663.075623,457.930664 
	C663.090332,451.965637 659.302307,448.539948 655.049133,445.588959 
	C654.066528,444.907166 651.491455,445.489655 650.274780,446.362457 
	C646.004028,449.425842 644.876099,453.943512 644.885132,459.067688 
	C644.957458,500.208832 644.920898,541.350159 644.917114,583.486877 
M683.531738,578.883911 
	C683.488525,583.708130 683.327393,588.534973 683.431335,593.356018 
	C683.567566,599.672668 687.575012,604.157288 692.740417,604.051941 
	C697.430420,603.956299 700.811035,599.713196 700.952759,593.377808 
	C701.287720,578.402527 701.772522,563.424072 701.726440,548.448303 
	C701.633606,518.315735 701.032471,488.183655 701.128113,458.052917 
	C701.145508,452.582733 699.003662,449.112610 695.114807,446.457397 
	C693.704163,445.494232 690.558594,445.472534 689.132202,446.419037 
	C683.970276,449.844452 683.635803,455.423187 683.636292,461.065704 
	C683.639771,500.026215 683.578979,538.986755 683.531738,578.883911 
M803.760376,1029.764526 
	C798.962830,1024.016602 792.049194,1021.007019 785.379700,1021.787598 
	C775.641968,1022.927185 768.703430,1029.749390 764.802368,1038.773560 
	C760.951294,1047.681885 765.417969,1055.467407 770.189575,1062.318604 
	C776.993958,1072.088501 795.183594,1074.731323 803.864685,1064.432861 
	C810.568481,1056.480103 814.411621,1041.791870 803.760376,1029.764526 
M766.329285,542.856750 
	C770.887634,553.235474 779.805176,556.606995 790.112854,556.896606 
	C799.837280,557.169800 805.148926,550.387756 808.790039,542.665894 
	C813.794739,532.051880 807.718933,516.149963 797.779663,512.318481 
	C787.287598,508.273956 778.178711,511.058502 770.259949,518.384460 
	C762.964355,525.133789 764.329956,533.633545 766.329285,542.856750 
M775.032959,1097.745239 
	C770.903625,1096.574463 766.774292,1095.403809 761.104492,1093.796265 
	C760.778198,1105.750732 760.113892,1115.960083 760.426575,1126.139282 
	C760.539062,1129.799805 762.463013,1133.740479 764.535889,1136.916626 
	C766.931946,1140.587891 769.984253,1140.218506 773.330627,1137.175781 
	C776.712341,1134.100830 777.642944,1130.227173 777.579224,1125.942627 
	C777.463318,1118.145264 777.356750,1110.346436 777.085693,1102.553833 
	C777.033508,1101.052246 776.245300,1099.576416 775.032959,1097.745239 
M813.740723,1095.921631 
	C813.034424,1095.611938 812.097229,1094.842773 811.657654,1095.063843 
	C807.397766,1097.204712 803.165588,1099.418213 799.071472,1101.856201 
	C798.315002,1102.306641 797.877747,1103.850952 797.862183,1104.898926 
	C797.744080,1112.847168 797.645325,1120.799683 797.794800,1128.746094 
	C797.878906,1133.213989 802.604187,1138.645752 806.065063,1138.777710 
	C809.123108,1138.894165 814.606750,1133.671143 814.640015,1129.528320 
	C814.728027,1118.589233 814.270203,1107.645996 813.740723,1095.921631 
M760.339966,473.094025 
	C761.034424,477.644409 761.728943,482.194794 762.497986,487.233856 
	C767.105286,485.463531 771.540771,484.090485 775.616760,482.012421 
	C777.034119,481.289825 778.376709,478.812531 778.355713,477.154236 
	C778.263550,469.858185 777.587341,462.571838 777.265015,455.275665 
	C776.995056,449.165680 773.896118,444.861481 769.512817,444.844360 
	C764.367004,444.824249 760.443420,449.046539 760.263672,455.185791 
	C760.097961,460.842499 760.248047,466.508423 760.339966,473.094025 
M797.791565,453.566101 
	C797.270142,459.163055 797.005859,464.799561 796.153198,470.345581 
	C795.341736,475.623138 798.033875,478.507080 802.162231,480.590057 
	C804.062378,481.548737 806.215271,481.996368 808.229248,482.741516 
	C811.588318,483.984314 812.847473,482.315765 813.094055,479.272430 
	C813.684265,471.985474 814.373291,464.703217 814.777222,457.405487 
	C815.104797,451.488068 811.830139,446.449646 806.815247,445.772247 
	C801.872253,445.104553 799.975037,449.281372 797.791565,453.566101 
M811.759766,578.930481 
	C805.469177,581.608276 799.178528,584.286072 792.756531,587.019775 
	C794.880249,591.843811 796.475159,595.621033 798.199280,599.338318 
	C799.834167,602.863220 802.799805,605.447266 806.446655,603.785156 
	C809.160950,602.548096 812.409912,599.426697 812.794556,596.765015 
	C813.623291,591.030212 812.760132,585.051025 811.759766,578.930481 
M812.698181,992.091797 
	C812.873901,987.797974 813.404480,983.476074 813.067444,979.222900 
	C812.911499,977.254578 811.507324,974.777649 809.889404,973.661316 
	C806.680298,971.447021 799.786743,973.625916 798.008850,976.855286 
	C795.351685,981.681641 796.210022,987.961609 800.563782,989.981323 
	C804.126770,991.634216 808.311768,991.946167 812.698181,992.091797 
M773.518188,978.179688 
	C766.343689,979.322327 764.717712,982.440613 766.656921,991.566467 
	C769.494629,990.635803 772.402344,989.907166 775.115967,988.730713 
	C778.022095,987.470886 782.735901,987.976074 782.395996,982.934509 
	C782.047424,977.764038 777.213135,979.517273 773.518188,978.179688 
M770.283691,587.781311 
	C771.193542,589.160095 772.103394,590.538879 773.583618,592.781982 
	C773.583618,590.875366 773.531128,589.688782 773.591125,589.683044 
	C777.951416,589.267944 782.320618,588.946533 786.689148,588.617554 
	C786.685364,588.438232 786.681641,588.258911 786.677856,588.079590 
	C779.936340,586.704895 773.194763,585.330139 766.242859,583.912537 
	C767.798523,585.102539 769.130310,586.121277 770.283691,587.781311 
z"/>
<path fill="#FAFAFA" opacity="1.000000" stroke="none" 
	d="
M1130.179688,1194.188599 
	C1115.392822,1195.386963 1101.007812,1197.413818 1086.616211,1197.460938 
	C995.462708,1197.759399 904.307800,1197.604126 813.153320,1197.628662 
	C700.500732,1197.658936 587.847656,1197.938354 475.195923,1197.646729 
	C435.254944,1197.543213 404.616211,1179.542480 384.063660,1145.358276 
	C376.920441,1133.477417 373.632477,1119.917603 373.025330,1105.985107 
	C372.322296,1089.853149 371.939453,1073.704346 371.635284,1057.558716 
	C371.392792,1044.689819 371.311798,1031.812866 371.464905,1018.943054 
	C371.605286,1007.145386 372.456635,995.351929 372.434235,983.557678 
	C372.414154,972.983643 372.079529,972.869019 382.634430,973.053345 
	C387.245117,973.133850 391.876038,973.605225 396.428345,974.333313 
	C397.500336,974.504761 399.042938,976.397095 399.095703,977.555725 
	C399.613007,988.916382 400.186371,1000.291199 400.118073,1011.658264 
	C399.969635,1036.360718 399.077972,1061.063232 399.219208,1085.761475 
	C399.316254,1102.734985 402.603027,1119.155762 412.317596,1133.659912 
	C422.906525,1149.469604 436.600464,1161.552490 455.006134,1167.121460 
	C461.395630,1169.054688 468.452759,1169.411621 475.205994,1169.418213 
	C582.854858,1169.522827 690.503967,1169.436768 798.153015,1169.429199 
	C882.639709,1169.423340 967.126465,1169.472168 1051.613159,1169.479858 
	C1068.607056,1169.481445 1085.603882,1169.197998 1102.594238,1169.421021 
	C1125.008423,1169.715210 1142.887207,1160.445801 1156.868530,1143.588257 
	C1162.880371,1136.339600 1168.420410,1128.405640 1172.544556,1119.984619 
	C1175.500854,1113.948486 1176.917480,1106.601440 1177.005005,1099.813232 
	C1177.391113,1069.824219 1177.021484,1039.825928 1176.980957,1009.830994 
	C1176.966431,999.057312 1177.244507,988.281738 1177.115479,977.510315 
	C1177.057373,972.659363 1179.350464,970.954651 1183.777710,971.180847 
	C1189.230957,971.459534 1194.708740,971.532654 1200.124878,972.145935 
	C1202.826172,972.451904 1203.936646,974.346741 1203.963867,977.489563 
	C1204.310913,1017.647827 1204.381958,1057.817383 1205.496948,1097.957153 
	C1206.371460,1129.442993 1193.397339,1154.050049 1170.229736,1173.861328 
	C1158.772461,1183.658813 1145.196533,1190.095825 1130.179688,1194.188599 
M804.199646,1172.371948 
	C803.925476,1172.022583 803.651306,1171.673218 803.377136,1171.323853 
	C803.474731,1171.857422 803.572388,1172.390869 804.199646,1172.371948 
z"/>
<path fill="#FDFDFD" opacity="1.000000" stroke="none" 
	d="
M447.162750,389.926697 
	C470.207794,388.950043 492.821198,387.272736 515.439087,387.209991 
	C565.419617,387.071442 615.402100,387.954010 665.384399,388.039398 
	C741.202332,388.168976 817.020935,388.017395 892.839050,387.880157 
	C906.830566,387.854828 920.820312,387.139221 934.812378,387.078369 
	C963.098633,386.955322 991.385864,387.044525 1019.672729,387.080566 
	C1046.435059,387.114685 1073.198486,387.062561 1099.959351,387.293091 
	C1121.124023,387.475403 1141.877197,390.137817 1160.272095,401.670197 
	C1188.948853,419.648529 1204.107300,445.953278 1204.583618,479.644653 
	C1205.132324,518.458130 1204.244629,557.291321 1204.108032,596.116394 
	C1204.096313,599.450317 1203.194702,601.756592 1199.867798,602.275330 
	C1195.170654,603.007690 1190.325928,604.182861 1185.704956,603.683167 
	C1179.010742,602.959351 1175.840820,598.439087 1175.908325,591.610535 
	C1176.236084,558.467529 1176.805054,525.325317 1176.858765,492.182098 
	C1176.877563,480.600311 1176.353149,468.903564 1170.974976,458.143921 
	C1160.802002,437.791992 1144.999268,423.957031 1123.188599,417.345825 
	C1119.791748,416.316223 1115.919556,416.698944 1112.266846,416.694092 
	C1084.778931,416.657715 1057.289551,416.872406 1029.803467,416.648499 
	C998.352844,416.392334 966.906555,415.575073 935.455933,415.365326 
	C914.482300,415.225403 893.504883,415.789307 872.528381,415.914886 
	C846.469299,416.070862 820.409485,416.122864 794.349915,416.177185 
	C764.045776,416.240387 733.740601,416.417938 703.437561,416.249512 
	C673.131714,416.081055 642.828613,415.475800 612.523010,415.197937 
	C592.709290,415.016235 572.892151,414.925018 553.078735,415.077972 
	C538.116516,415.193451 523.158569,415.801239 508.197113,416.113007 
	C494.566162,416.397095 480.929596,416.883759 467.301849,416.727295 
	C449.693390,416.525116 436.123871,424.462311 424.305084,436.589111 
	C411.706879,449.515656 404.358215,465.039520 401.203949,482.659424 
	C400.827545,484.762177 401.052704,486.978027 401.050354,489.141510 
	C401.011902,524.303162 400.986847,559.464844 400.944946,594.626465 
	C400.937378,600.978027 399.231537,603.556091 393.172729,603.739990 
	C387.777039,603.903687 382.286682,602.909119 376.960388,601.824951 
	C375.830231,601.594910 374.598541,598.804260 374.488678,597.123108 
	C373.826141,586.986877 373.156830,576.832520 373.083618,566.679932 
	C372.884094,539.017761 373.074615,511.352936 372.933777,483.690063 
	C372.790405,455.534302 384.345428,432.665131 403.877686,413.116699 
	C415.910522,401.073792 430.801056,394.627075 447.162750,389.926697 
z"/>
<path fill="#FBFBFB" opacity="1.000000" stroke="none" 
	d="
M904.000000,661.858276 
	C726.909363,661.858765 550.318665,661.858765 374.018494,661.858765 
	C374.018494,652.086853 374.018494,642.896790 374.018494,633.513672 
	C651.688660,633.513672 928.516785,633.513672 1206.047852,633.513672 
	C1206.047852,643.093323 1206.047852,652.133362 1206.047852,661.857788 
	C1105.636353,661.857788 1005.068176,661.857788 904.000000,661.858276 
z"/>
<path fill="#FDFDFD" opacity="1.000000" stroke="none" 
	d="
M835.000000,914.929688 
	C958.899963,914.929993 1082.299927,914.929993 1205.423584,914.929993 
	C1205.423584,923.703369 1205.423584,933.116882 1205.423584,942.614563 
	C927.714478,942.614563 650.619263,942.614563 373.243561,942.614563 
	C373.243561,933.372070 373.243561,924.482544 373.243561,914.929321 
	C527.234192,914.929321 680.867065,914.929321 835.000000,914.929688 
z"/>
<path fill="#FDFCFC" opacity="1.000000" stroke="none" 
	d="
M906.365723,808.587891 
	C904.148254,804.001892 902.125977,799.739258 899.558594,794.327454 
	C887.512085,821.177429 876.067078,846.686829 864.399719,872.691772 
	C843.229675,815.553589 822.353577,759.208618 801.155579,701.995056 
	C810.262939,701.995056 818.201416,701.836121 826.120972,702.152771 
	C827.428833,702.205078 829.165100,704.106384 829.826111,705.553772 
	C832.443542,711.284668 834.823730,717.131775 837.090576,723.013306 
	C845.920166,745.922180 854.667358,768.862793 863.471436,791.781616 
	C863.873169,792.827454 864.529236,793.775635 865.266052,795.137390 
	C875.902771,765.085938 889.112183,736.402100 895.391235,705.565979 
	C897.700195,712.776550 899.571777,720.238770 902.448914,727.290771 
	C909.903625,745.562561 917.852844,763.632019 925.482666,781.833435 
	C927.189697,785.905823 928.396729,790.187805 930.166321,795.340881 
	C931.228699,793.521667 932.095520,792.454163 932.528931,791.232910 
	C939.742432,770.905212 946.762329,750.507507 954.139832,730.239746 
	C957.201660,721.828064 960.916321,713.646973 964.561401,705.462219 
	C965.093933,704.266541 966.879639,702.889282 968.113037,702.862488 
	C977.893433,702.649902 987.680481,702.744141 997.022888,702.744141 
	C971.860291,758.557068 952.910950,817.691101 932.049683,875.825867 
	C927.162598,852.458191 917.481628,830.447632 906.365723,808.587891 
z"/>
<path fill="#FDFDFD" opacity="1.000000" stroke="none" 
	d="
M699.095154,773.063232 
	C695.693787,783.738831 689.478882,791.616455 679.717896,796.482483 
	C676.179443,798.246521 674.742249,800.708252 676.437012,804.541870 
	C682.400757,818.031494 688.186279,831.603271 694.371277,844.990601 
	C698.660889,854.275330 703.495972,863.308044 708.033997,872.347229 
	C697.766541,872.347229 687.980835,872.487732 678.208740,872.188354 
	C676.821167,872.145874 674.934448,870.230347 674.233582,868.734436 
	C666.643921,852.532776 659.300720,836.215942 651.757568,819.992188 
	C649.732788,815.637207 647.206299,811.518005 645.008789,807.239929 
	C643.661011,804.616089 642.578674,803.305725 638.936646,804.677917 
	C635.222351,806.077209 630.815491,805.638245 627.003296,805.978149 
	C627.003296,827.997192 627.003296,849.554565 627.003296,872.024780 
	C619.635742,872.388977 611.636414,872.784363 603.789795,873.172302 
	C600.456848,860.724365 598.687744,848.950745 598.907166,836.741455 
	C599.218445,819.426697 598.407166,802.094910 598.451355,784.771423 
	C598.502747,764.622559 598.823975,744.471313 599.316040,724.328125 
	C599.484131,717.447388 600.523315,710.587952 601.245911,702.847351 
	C601.854004,702.805847 603.729370,702.560486 605.603760,702.568176 
	C621.598022,702.633911 637.629272,702.089661 653.577637,702.994324 
	C678.641418,704.416016 698.013916,716.288940 701.349243,744.799500 
	C702.483582,754.495422 702.353027,763.568176 699.095154,773.063232 
M636.475037,780.912231 
	C642.059937,780.290894 647.635620,779.566467 653.231567,779.069275 
	C665.800720,777.952576 675.763489,765.833862 674.442322,753.136963 
	C672.926880,738.573608 661.110107,729.577576 646.186768,731.292847 
	C641.803955,731.796570 637.234009,731.933838 632.901978,731.260498 
	C628.674805,730.603394 627.143799,731.536072 627.067261,735.864929 
	C626.826660,749.485535 626.322876,763.101440 625.955383,776.720093 
	C625.921631,777.968750 626.134094,779.224121 626.267029,780.919800 
	C629.586182,780.919800 632.546997,780.919800 636.475037,780.912231 
z"/>
<path fill="#FCFCFC" opacity="1.000000" stroke="none" 
	d="
M471.959473,871.278198 
	C470.285309,872.005371 468.916168,872.857422 467.534729,872.877869 
	C459.050507,873.003235 450.563568,872.940674 440.977600,872.940674 
	C467.181213,813.980164 495.575073,756.671631 517.059204,697.408691 
	C523.622681,712.447876 530.337097,727.928162 537.128601,743.374451 
	C551.287476,775.576843 565.726379,807.659180 579.529175,840.013184 
	C583.861755,850.168640 586.528992,861.034546 590.036499,871.815186 
	C581.277893,871.815186 572.690369,871.940979 564.116882,871.651733 
	C563.077515,871.616577 561.697510,869.495239 561.181885,868.082886 
	C557.661316,858.439514 554.188354,848.773254 551.007690,839.014038 
	C549.762878,835.194458 548.000488,833.262634 543.659790,833.332703 
	C527.505920,833.593506 511.346436,833.631531 495.190430,833.530518 
	C491.442932,833.507141 489.136108,834.396362 487.589935,838.157166 
	C483.870148,847.204834 479.720886,856.077637 475.657593,864.981079 
	C474.702179,867.074585 473.400970,869.010315 471.959473,871.278198 
M510.200684,782.715576 
	C507.505280,790.056335 504.809875,797.397034 502.027252,804.975342 
	C513.305237,804.975342 523.516174,804.975342 534.930908,804.975342 
	C529.043945,791.456482 523.549377,778.838867 517.648499,765.288147 
	C515.037109,771.466797 512.803406,776.751892 510.200684,782.715576 
z"/>
<path fill="#FCFCFC" opacity="1.000000" stroke="none" 
	d="
M1024.855469,716.736206 
	C1027.469116,708.510559 1029.977905,700.664673 1032.406982,693.068176 
	C1035.728760,702.722656 1038.470825,712.679138 1042.514038,722.075684 
	C1055.435547,752.106384 1068.816406,781.939758 1082.065796,811.828979 
	C1090.668579,831.235962 1099.356323,850.605164 1107.979126,870.003296 
	C1108.300049,870.725403 1108.336670,871.574097 1108.700439,873.273376 
	C1102.875977,872.828796 1097.512695,872.407898 1092.147339,872.015015 
	C1089.686646,871.834778 1086.756592,870.782654 1084.849365,871.739746 
	C1079.883667,874.231750 1078.428467,871.500122 1077.047363,867.748474 
	C1073.010498,856.783325 1068.936890,845.831848 1064.442017,833.699158 
	C1061.511475,833.699158 1056.931152,833.691528 1052.350830,833.700623 
	C1037.864746,833.729309 1023.378296,833.835876 1008.893188,833.735657 
	C1006.039429,833.715881 1004.817627,834.178040 1003.734253,837.340271 
	C1000.140747,847.829468 995.908630,858.107483 991.635559,868.347229 
	C991.066956,869.709839 988.873901,871.199341 987.391479,871.243774 
	C978.439270,871.512268 969.475037,871.377380 959.638977,871.377380 
	C967.938232,844.841064 981.161377,820.168701 991.482361,794.346313 
	C1001.881958,768.327148 1013.606506,742.837524 1024.855469,716.736206 
M1025.902344,785.330811 
	C1023.391907,791.716309 1020.881531,798.101807 1018.058289,805.283081 
	C1029.333374,805.283081 1039.519287,805.283081 1050.341797,805.283081 
	C1044.675781,792.933655 1039.316772,781.253052 1033.957764,769.572510 
	C1033.460449,769.604004 1032.963257,769.635437 1032.466064,769.666931 
	C1030.340088,774.637390 1028.214111,779.607910 1025.902344,785.330811 
z"/>
<path fill="#FCFCFC" opacity="1.000000" stroke="none" 
	d="
M722.387329,774.996948 
	C722.366028,750.464478 722.366028,726.432190 722.366028,702.793030 
	C739.974182,702.793030 758.103699,702.895447 776.229980,702.703613 
	C779.711975,702.666870 781.218201,703.719727 782.201538,707.042175 
	C784.594177,715.126038 787.419800,723.081726 790.266968,731.680664 
	C776.153687,731.680664 762.828613,731.680664 748.251526,731.680664 
	C748.251526,743.898560 748.251526,756.540710 748.251526,769.794739 
	C762.226074,769.794739 777.105591,769.794739 792.228271,769.794739 
	C793.284180,779.268860 794.338196,788.726013 795.465271,798.838501 
	C779.562439,798.838501 764.028564,798.838501 748.018799,798.838501 
	C748.018799,814.196167 748.018799,828.941223 748.018799,843.859741 
	C768.885498,843.859741 789.917419,843.859741 811.902100,843.859741 
	C811.902100,852.911194 811.902100,862.585632 811.902100,872.928040 
	C809.210144,872.928040 805.935791,872.926880 802.661438,872.928223 
	C778.165588,872.937805 753.669678,872.950134 729.173828,872.956482 
	C722.648438,872.958191 720.969177,871.554565 721.009521,864.929810 
	C721.130066,845.110168 721.435181,825.291321 721.734436,805.473145 
	C721.885376,795.480042 722.179382,785.489014 722.387329,774.996948 
z"/>
<path fill="#FCFCFC" opacity="1.000000" stroke="none" 
	d="
M1134.027100,1007.982178 
	C1142.773438,1018.603882 1147.473633,1030.169556 1149.521240,1043.716919 
	C1151.473022,1056.630737 1149.914062,1068.692261 1145.892578,1080.381958 
	C1139.029175,1100.333252 1125.052856,1113.767456 1104.382446,1119.104126 
	C1069.348633,1128.149414 1035.640137,1104.677002 1027.056763,1069.943359 
	C1019.950500,1041.186890 1027.960205,1017.538452 1051.425171,999.555969 
	C1063.478882,990.318420 1077.762451,985.845703 1092.775391,986.052612 
	C1108.069580,986.263367 1120.678833,993.684998 1131.076538,1004.788757 
	C1131.986206,1005.760071 1132.886841,1006.739807 1134.027100,1007.982178 
M1103.308716,1016.053223 
	C1095.894531,1011.848267 1087.588257,1011.833313 1080.009155,1013.696350 
	C1069.205688,1016.351746 1061.018921,1023.699951 1054.998657,1033.113281 
	C1044.686523,1049.237427 1047.610596,1064.714233 1057.094727,1079.439819 
	C1066.141357,1093.485840 1083.394653,1099.569092 1097.962158,1095.085938 
	C1107.703857,1092.087891 1114.785767,1085.830566 1120.241943,1077.097290 
	C1133.332764,1056.143677 1125.916260,1027.724243 1103.308716,1016.053223 
z"/>
<path fill="#FCFCFC" opacity="1.000000" stroke="none" 
	d="
M457.337646,1112.765381 
	C438.134796,1101.155396 427.874207,1084.085693 424.511566,1062.597778 
	C420.295227,1035.654907 436.423309,1004.036560 460.883423,992.094482 
	C478.888214,983.304138 496.936981,984.520752 514.375427,993.976868 
	C532.723450,1003.926270 542.490540,1020.053894 546.263489,1040.120728 
	C549.708679,1058.443848 548.118042,1076.270020 539.033813,1092.786987 
	C531.169373,1107.086060 518.832458,1115.524414 502.831726,1119.271973 
	C486.791321,1123.028809 471.937256,1120.633423 457.337646,1112.765381 
M471.622314,1017.018005 
	C439.233093,1034.439453 443.511749,1074.009033 468.542084,1090.430176 
	C482.225311,1099.407104 504.527618,1096.633301 514.575623,1084.403809 
	C530.755432,1064.711426 529.822510,1042.115112 511.551697,1023.510071 
	C502.383606,1014.174316 484.420959,1008.427124 471.622314,1017.018005 
z"/>
<path fill="#FCFCFC" opacity="1.000000" stroke="none" 
	d="
M537.692261,569.648865 
	C528.837646,583.715271 515.539917,589.394226 500.318176,593.427795 
	C472.388458,600.828918 439.825775,578.948730 430.335297,558.739014 
	C425.590454,548.635071 424.227203,537.935181 424.822754,526.844055 
	C426.014587,504.649658 436.260559,487.273895 453.159119,473.557220 
	C478.985443,452.593964 512.584473,458.728271 532.399109,484.002502 
	C538.902100,492.297241 544.937927,501.079559 546.589661,511.640503 
	C548.052429,520.993225 549.183716,530.289734 548.131653,540.143799 
	C546.964417,551.075989 543.251770,560.296509 537.692261,569.648865 
M461.642548,500.151764 
	C440.979065,521.275146 448.353394,546.791687 464.532806,560.734314 
	C474.754517,569.542847 486.617157,572.570618 499.350494,567.686768 
	C512.590271,562.608521 522.391479,553.127808 525.449402,539.064209 
	C528.776001,523.764404 523.660889,510.223846 512.823608,498.958038 
	C505.811127,491.668304 496.963806,487.593475 487.070770,487.731110 
	C477.329163,487.866669 468.955078,492.537079 461.642548,500.151764 
z"/>
<path fill="#FCFCFC" opacity="1.000000" stroke="none" 
	d="
M1111.240479,590.333191 
	C1102.671509,593.091003 1094.492676,595.708374 1085.631104,594.943420 
	C1072.335083,593.795593 1060.572998,588.984375 1050.227783,580.671753 
	C1022.793701,558.627930 1016.687439,516.619507 1039.053589,487.687195 
	C1049.944092,473.599518 1064.548218,465.119904 1082.021973,461.857117 
	C1106.081299,457.364685 1123.236084,468.352509 1136.852539,486.880981 
	C1144.729370,497.599396 1148.114502,509.567993 1149.552979,522.898926 
	C1151.158203,537.775696 1148.867188,551.419922 1141.931152,564.125610 
	C1135.234375,576.393188 1125.011841,585.334290 1111.240479,590.333191 
M1061.101074,557.388672 
	C1066.006592,562.992859 1071.665283,568.076721 1078.988770,569.461731 
	C1107.300537,574.816345 1126.337036,553.095581 1127.063110,530.510620 
	C1127.361816,521.215820 1123.721436,512.820374 1118.929688,504.812714 
	C1106.903198,484.714386 1081.859253,484.565430 1068.322876,495.494354 
	C1047.137939,512.598267 1042.115967,536.027405 1061.101074,557.388672 
z"/>
<path fill="#FDFDFD" opacity="1.000000" stroke="none" 
	d="
M404.092651,840.286865 
	C404.080170,851.213867 404.080170,861.668884 404.080170,872.520142 
	C396.302887,872.520142 387.926849,872.520142 378.775146,872.520142 
	C378.775146,869.599915 378.773010,866.826782 378.775513,864.053711 
	C378.815155,820.266968 378.956390,776.479980 378.819305,732.693787 
	C378.787903,722.665405 377.798492,712.640076 377.251556,702.641968 
	C408.832581,702.641968 441.684204,702.641968 474.682037,702.641968 
	C473.307495,711.457336 472.173401,719.784607 470.548950,728.015198 
	C470.304657,729.252747 467.797852,730.852478 466.288116,730.906799 
	C450.663910,731.468323 435.030792,731.859009 419.397186,732.035950 
	C414.685150,732.089294 409.963928,731.330444 405.598389,730.972473 
	C405.598389,743.728638 405.598389,755.965515 405.598389,768.381226 
	C423.725159,768.381226 441.125916,768.381226 458.749573,768.381226 
	C457.510193,775.170227 456.301819,782.068909 454.983276,788.946533 
	C453.049713,799.032043 453.012390,799.215149 442.634369,799.011902 
	C431.534790,798.794495 420.435822,798.298035 409.351837,797.658875 
	C405.199707,797.419495 403.846436,798.737366 403.987549,802.960144 
	C404.282166,811.776428 404.039093,820.610474 404.034973,829.437195 
	C404.033386,832.896423 404.080322,836.355652 404.092651,840.286865 
z"/>
<path fill="#FCFCFC" opacity="1.000000" stroke="none" 
	d="
M1104.127686,760.829285 
	C1095.747314,747.250671 1087.442383,734.056519 1079.381348,720.714966 
	C1075.651978,714.542725 1072.398560,708.082825 1068.425171,700.833008 
	C1074.321045,701.401917 1079.340576,701.923584 1084.367798,702.356750 
	C1087.185791,702.599487 1090.155884,703.322388 1092.813477,702.731689 
	C1098.951172,701.367371 1101.790649,704.732971 1104.546143,709.278748 
	C1115.393799,727.173828 1126.405640,744.969360 1137.381348,762.786621 
	C1137.889282,763.611267 1138.635132,764.289429 1139.860596,765.729736 
	C1142.156494,762.288879 1144.413818,759.289734 1146.269897,756.059998 
	C1156.358643,738.503967 1166.280396,720.851318 1176.505005,703.375427 
	C1177.299805,702.016907 1180.339600,700.700256 1181.719482,701.171143 
	C1188.503418,703.485901 1195.073242,702.648071 1201.838379,701.324280 
	C1204.963623,700.712708 1208.307861,701.219971 1212.495117,701.219971 
	C1210.777222,703.648193 1209.434814,705.254028 1208.408936,707.041626 
	C1199.904175,721.863647 1191.568604,736.783813 1182.962524,751.546448 
	C1174.352173,766.316650 1165.427124,780.903503 1156.814087,795.672180 
	C1155.723389,797.542236 1155.193848,800.037476 1155.239136,802.225830 
	C1155.676392,823.362793 1156.272339,844.496582 1156.868530,865.630066 
	C1157.066406,872.643738 1157.127197,872.674805 1150.180298,872.718750 
	C1143.380493,872.761719 1136.580322,872.728149 1129.198853,872.728149 
	C1129.103149,870.766541 1128.931030,868.836792 1128.927856,866.906799 
	C1128.912842,857.746399 1129.172729,848.579224 1128.903442,839.427185 
	C1128.522827,826.497620 1128.105835,813.548401 1126.947510,800.675659 
	C1126.617676,797.010681 1123.876709,793.454407 1121.868896,790.069336 
	C1116.115723,780.369995 1110.171753,770.784058 1104.127686,760.829285 
z"/>
<path fill="#FBFAFB" opacity="1.000000" stroke="none" 
	d="
M642.955933,1116.997803 
	C642.950562,1075.420898 642.859314,1034.341797 643.026062,993.263916 
	C643.047180,988.061646 643.734985,982.626038 645.432373,977.758240 
	C646.400024,974.983032 650.171936,971.190125 652.439697,971.346985 
	C655.582458,971.564209 658.909546,974.683899 661.346436,977.312927 
	C662.667969,978.738647 662.648315,981.722656 662.653687,984.005127 
	C662.715820,1010.366516 662.612305,1036.728271 662.664612,1063.089722 
	C662.705505,1083.699341 662.906189,1104.308594 663.029175,1124.918091 
	C663.063477,1130.666138 661.667908,1135.805176 656.705688,1139.364136 
	C652.910461,1142.086304 649.797546,1141.603271 646.853027,1137.776978 
	C644.188477,1134.314575 642.151855,1130.697754 642.829163,1125.978516 
	C643.227600,1123.202515 642.932556,1120.326904 642.955933,1116.997803 
z"/>
<path fill="#FBFBFB" opacity="1.000000" stroke="none" 
	d="
M623.229248,1033.906372 
	C623.162292,1065.269165 623.210571,1096.146851 622.858398,1127.019775 
	C622.820984,1130.301758 621.056641,1134.054932 618.950378,1136.668091 
	C617.242615,1138.786865 613.205994,1141.214111 611.279175,1140.519165 
	C607.165466,1139.035522 603.946655,1135.568237 603.957520,1130.316895 
	C604.012146,1104.019287 603.990906,1077.721802 604.004028,1051.424194 
	C604.015686,1028.122803 604.015076,1004.821289 604.071777,981.520020 
	C604.084595,976.270691 608.623596,971.149475 613.232178,970.933533 
	C617.127380,970.750916 622.703308,976.686401 622.767883,981.500427 
	C623.000122,998.805847 623.087036,1016.113159 623.229248,1033.906372 
z"/>
<path fill="#F9F9F9" opacity="1.000000" stroke="none" 
	d="
M969.568604,1009.000366 
	C969.540405,1048.988159 969.528748,1088.475952 969.432129,1127.963623 
	C969.427002,1130.053955 969.220093,1132.447754 968.204468,1134.166748 
	C966.244873,1137.483521 963.621277,1140.573608 959.098877,1139.895020 
	C955.520020,1139.358032 950.976624,1132.854858 950.938965,1128.385620 
	C950.829468,1115.390503 950.755981,1102.394653 950.768860,1089.399170 
	C950.804321,1053.742310 950.874268,1018.085327 951.001038,982.428650 
	C951.008484,980.330383 951.161499,977.993042 952.076477,976.187317 
	C954.015686,972.360229 957.383118,970.186157 961.825073,970.600464 
	C965.218872,970.916931 969.292419,975.822327 969.393127,980.015198 
	C969.621094,989.506226 969.529114,999.004822 969.568604,1009.000366 
z"/>
<path fill="#F9F9F9" opacity="1.000000" stroke="none" 
	d="
M874.061523,1089.999756 
	C874.018127,1060.844604 873.933716,1032.189697 873.959412,1003.534851 
	C873.966431,995.712219 874.301514,987.889832 874.494812,980.067505 
	C874.511169,979.403137 874.547607,978.732849 874.653198,978.078003 
	C875.326294,973.903320 880.146973,968.550049 882.577454,970.008850 
	C886.080261,972.111084 890.991516,975.832458 891.101624,979.008362 
	C892.203003,1010.793640 892.463623,1042.608521 892.910522,1074.415649 
	C893.021179,1082.293091 892.961975,1090.173096 892.955566,1098.052002 
	C892.948364,1106.940552 893.299622,1115.854614 892.712341,1124.705811 
	C892.451111,1128.643433 890.899170,1132.839478 888.811279,1136.226929 
	C886.020630,1140.754639 881.850952,1140.933594 878.592712,1136.741577 
	C876.478027,1134.020996 874.657227,1130.312256 874.503235,1126.963623 
	C873.945190,1114.827881 874.146912,1102.657349 874.061523,1089.999756 
z"/>
<path fill="#FBFAFB" opacity="1.000000" stroke="none" 
	d="
M565.593140,1004.501343 
	C565.450989,996.379150 565.221924,988.722168 565.314697,981.069214 
	C565.385376,975.239624 569.384460,970.888184 574.193359,970.891296 
	C579.028748,970.894409 583.319946,975.639099 583.449036,981.394409 
	C583.912354,1002.042542 584.474854,1022.690674 584.676575,1043.341919 
	C584.937927,1070.108398 585.007019,1096.878296 584.885193,1123.645630 
	C584.857483,1129.744751 584.041687,1136.100952 578.111511,1139.772827 
	C576.657104,1140.673340 573.623718,1140.960815 572.465149,1140.057251 
	C568.104492,1136.656006 564.610291,1132.638184 564.883545,1126.309937 
	C565.680786,1107.849609 566.600586,1089.377808 566.675293,1070.907349 
	C566.764221,1048.929443 566.025024,1026.948120 565.593140,1004.501343 
z"/>
<path fill="#FBFBFB" opacity="1.000000" stroke="none" 
	d="
M623.929749,454.485413 
	C624.141418,468.348938 624.278748,481.827850 624.334778,495.307159 
	C624.374939,504.966034 624.430176,514.627930 624.233337,524.283447 
	C624.135437,529.085571 623.109436,533.880127 623.157104,538.671631 
	C623.296143,552.622803 623.905884,566.569397 624.028931,580.520447 
	C624.072632,585.477051 624.014160,590.680420 622.565674,595.322876 
	C621.493896,598.757935 618.303345,601.676514 615.593872,604.357300 
	C614.891479,605.052246 612.028442,604.534119 610.883911,603.641846 
	C606.154419,599.955139 603.689026,595.596375 603.816467,588.858215 
	C604.645081,545.075195 604.877380,501.280975 605.362671,457.491028 
	C605.382446,455.708008 605.394409,453.401062 606.427734,452.259521 
	C608.756104,449.687378 611.471191,446.539917 614.520203,445.873047 
	C616.529480,445.433563 619.499390,448.775757 621.824707,450.685699 
	C622.780334,451.470673 623.172180,452.941956 623.929749,454.485413 
z"/>
<path fill="#FAFAFA" opacity="1.000000" stroke="none" 
	d="
M931.089111,1065.031372 
	C931.278564,1082.980103 931.609192,1100.434204 931.621521,1117.888550 
	C931.625000,1122.902954 931.608154,1128.255981 929.894226,1132.811768 
	C928.783264,1135.764771 924.443726,1139.513428 921.796814,1139.331177 
	C918.966736,1139.136719 916.155273,1134.958496 913.873657,1132.090942 
	C912.753113,1130.682373 912.446289,1128.304810 912.453186,1126.368286 
	C912.625366,1077.962036 912.867126,1029.555908 913.211487,981.150635 
	C913.225708,979.149170 913.747498,976.408203 915.091492,975.322998 
	C917.455933,973.413818 921.598694,970.705872 923.272705,971.591431 
	C926.388123,973.239441 928.322693,977.185791 930.604858,980.281616 
	C931.015259,980.838318 930.763550,981.905090 930.767151,982.736572 
	C930.884949,1010.003357 930.996643,1037.270142 931.089111,1065.031372 
z"/>
<path fill="#FBFBFB" opacity="1.000000" stroke="none" 
	d="
M843.072632,970.734131 
	C850.450378,972.866699 852.733032,975.702209 852.740784,982.781860 
	C852.787354,1025.569580 852.745789,1068.357544 852.850708,1111.145020 
	C852.861633,1115.607056 853.606323,1120.070557 854.068665,1124.527344 
	C854.650513,1130.136841 851.858398,1134.106201 847.748901,1137.328369 
	C844.968933,1139.507935 841.970581,1139.267090 839.816956,1136.526001 
	C837.081665,1133.044434 834.651245,1129.516724 834.906738,1124.469849 
	C835.352356,1115.666992 835.223755,1106.820801 834.989075,1098.001953 
	C834.786072,1090.377686 834.060303,1082.768188 833.662659,1075.147095 
	C833.577148,1073.507812 833.493103,1071.668823 834.112366,1070.223511 
	C839.684998,1057.216553 836.003906,1043.594849 836.808289,1030.286011 
	C836.978210,1027.473877 835.865173,1024.457764 834.840942,1021.723938 
	C831.900024,1013.874268 833.555908,1006.033691 834.317200,998.130432 
	C834.842224,992.680359 834.987915,987.177795 834.994568,981.698303 
	C835.001282,976.133667 837.744019,972.745483 843.072632,970.734131 
z"/>
<path fill="#FBFAFB" opacity="1.000000" stroke="none" 
	d="
M969.520081,465.056885 
	C969.763245,507.006134 970.018616,548.464478 970.239136,589.923096 
	C970.247925,591.572693 970.119446,593.272522 969.721497,594.865784 
	C968.268066,600.684631 964.002502,605.372986 960.713196,604.968079 
	C956.449280,604.443359 950.767456,597.182983 950.771423,592.103271 
	C950.806519,547.308105 950.830261,502.512726 951.017334,457.718079 
	C951.027649,455.247192 952.047974,452.543701 953.318726,450.369598 
	C955.293457,446.991150 958.949890,444.438934 962.464661,446.295776 
	C965.394592,447.843689 967.849060,451.433777 969.106201,454.666840 
	C970.239075,457.580536 969.461304,461.237152 969.520081,465.056885 
z"/>
<path fill="#F7F7F7" opacity="1.000000" stroke="none" 
	d="
M886.848145,603.142456 
	C881.421814,604.433350 875.663940,600.099854 874.715820,594.279480 
	C874.343567,591.994202 874.311768,589.635010 874.314758,587.309692 
	C874.370239,544.500366 874.454407,501.691071 874.533508,458.881775 
	C874.534424,458.382111 874.541870,457.882233 874.557922,457.382812 
	C874.786499,450.270752 878.262573,445.694092 883.504272,445.601013 
	C888.536926,445.511658 892.194763,450.420319 892.233276,457.512207 
	C892.470886,501.230896 892.647705,544.950012 892.941101,588.668335 
	C892.979065,594.327087 891.447876,599.124084 886.848145,603.142456 
z"/>
<path fill="#FDFDFD" opacity="1.000000" stroke="none" 
	d="
M701.640381,1095.541016 
	C701.363953,1105.981934 701.169067,1115.960083 700.976990,1125.938354 
	C700.957764,1126.937012 700.977112,1127.936523 700.942322,1128.934448 
	C700.721741,1135.263794 696.770996,1140.337646 692.018677,1140.409424 
	C687.632324,1140.475830 683.587463,1134.767944 683.591003,1128.636353 
	C683.618958,1080.531616 683.703857,1032.426514 683.548828,984.322327 
	C683.531128,978.822937 685.128845,974.626038 689.372375,971.351135 
	C690.113037,970.779541 691.588318,969.898987 691.818787,970.117249 
	C694.940063,973.073730 697.903259,976.197205 700.891785,979.292725 
	C700.976990,979.380920 700.912598,979.615662 700.914124,979.782104 
	C701.258545,1017.385254 701.604248,1054.988403 701.936401,1092.591675 
	C701.943726,1093.419922 701.797424,1094.249512 701.640381,1095.541016 
z"/>
<path fill="#FAFAFA" opacity="1.000000" stroke="none" 
	d="
M852.157349,596.952637 
	C849.822021,599.888794 848.126770,603.817505 843.891235,602.372559 
	C838.957092,600.689209 834.710510,597.181519 834.548340,591.749146 
	C834.126282,577.608765 832.953979,563.637817 836.247986,549.304749 
	C838.869995,537.895935 838.383545,525.504028 835.482910,513.517517 
	C834.131775,507.933899 834.873962,501.818665 834.853821,495.943756 
	C834.822510,486.789337 834.773560,477.628387 835.081238,468.481964 
	C835.247742,463.531006 836.185425,458.609283 836.687195,453.665436 
	C837.160095,449.006805 839.392761,445.621063 844.148560,445.110046 
	C848.060974,444.689667 853.635803,451.137634 853.623169,455.861328 
	C853.577820,472.784882 853.243225,489.707886 853.228821,506.631256 
	C853.221375,515.407471 853.868225,524.184570 853.846924,532.960388 
	C853.804138,550.641113 853.551880,568.321899 853.275879,586.000916 
	C853.220581,589.548096 852.675232,593.087585 852.157349,596.952637 
z"/>
<path fill="#FAFAFA" opacity="1.000000" stroke="none" 
	d="
M913.103638,547.001221 
	C913.106079,516.857056 913.069763,487.212769 913.203857,457.569244 
	C913.215210,455.057953 913.721863,452.072418 915.144592,450.159790 
	C917.102783,447.527374 919.808228,444.131104 923.777527,445.944397 
	C928.527832,448.114471 930.778015,452.533905 930.825684,457.669556 
	C930.999878,476.444733 930.881714,495.222656 931.069031,513.997620 
	C931.324524,539.608093 931.837769,565.216187 932.003052,590.826843 
	C932.020813,593.588745 931.035828,596.744202 929.497986,599.033203 
	C927.476868,602.041443 925.155579,605.675232 920.247009,603.792236 
	C915.715454,602.053955 911.648254,596.476501 911.784485,591.861572 
	C912.220947,577.074646 912.667297,562.288025 913.103638,547.001221 
z"/>
<path fill="#FBFAFB" opacity="1.000000" stroke="none" 
	d="
M1006.847290,1110.999878 
	C1006.893494,1116.663574 1007.411865,1121.882812 1006.815430,1126.971558 
	C1006.419495,1130.349976 1005.051514,1134.010010 1003.016296,1136.714600 
	C999.319458,1141.627319 995.561646,1141.453003 992.409912,1136.314209 
	C990.580383,1133.331299 989.034790,1129.564819 989.043884,1126.155396 
	C989.171997,1078.028198 989.583740,1029.901978 989.943420,981.775452 
	C989.987915,975.819214 993.182861,971.845764 998.897278,970.473816 
	C1002.267517,969.664673 1006.715271,974.882263 1006.789124,980.067322 
	C1006.936279,990.393982 1006.961243,1000.723022 1006.955994,1011.051086 
	C1006.938965,1044.200684 1006.885132,1077.350342 1006.847290,1110.999878 
z"/>
<path fill="#FBFAFB" opacity="1.000000" stroke="none" 
	d="
M739.978394,1109.014648 
	C739.969666,1115.342529 740.477112,1121.234863 739.779541,1126.980957 
	C739.353271,1130.492676 737.671021,1134.240479 735.490417,1137.060791 
	C732.146118,1141.386230 728.480286,1140.994507 725.471741,1136.332764 
	C722.177185,1131.228149 720.432861,1125.641846 721.290466,1119.334351 
	C722.094238,1113.422363 722.698242,1107.446167 722.825073,1101.486084 
	C723.285706,1079.847656 723.725830,1058.204346 723.755066,1036.562378 
	C723.779541,1018.410950 723.207214,1000.258911 722.942078,982.106506 
	C722.918091,980.461792 722.603333,978.301392 723.475342,977.268555 
	C725.470947,974.905151 729.249146,970.907654 730.295776,971.449890 
	C733.959900,973.347717 738.873291,976.498047 739.501648,979.880554 
	C741.150879,988.758179 741.358215,998.024658 741.103638,1007.107239 
	C740.695923,1021.653625 739.135010,1036.167603 738.717590,1050.714111 
	C738.551819,1056.488647 740.580444,1062.295044 740.819519,1068.119507 
	C741.153076,1076.244629 740.804443,1084.401367 740.633972,1092.542236 
	C740.522339,1097.869385 740.209167,1103.192383 739.978394,1109.014648 
z"/>
<path fill="#FDFCFC" opacity="1.000000" stroke="none" 
	d="
M585.034668,500.000000 
	C585.031738,529.990906 585.134094,559.482727 584.888611,588.971619 
	C584.858582,592.576721 583.581421,596.535156 581.728210,599.641418 
	C580.348938,601.953491 577.032349,604.634949 574.706116,604.522095 
	C570.553833,604.320679 567.569153,600.878235 567.016541,596.533447 
	C566.496338,592.442505 566.575623,588.252136 566.661743,584.111145 
	C567.056274,565.135132 568.035034,546.156250 567.845703,527.187927 
	C567.695068,512.094360 565.758972,497.024628 565.381348,481.925140 
	C565.136658,472.144226 565.766418,462.258972 567.109619,452.573761 
	C567.487183,449.851379 571.414062,446.717072 574.399536,445.589783 
	C576.277588,444.880615 580.334106,446.889618 581.790710,448.871674 
	C583.700317,451.470062 584.792053,455.224792 584.872314,458.515442 
	C585.205566,472.170135 585.025696,485.837372 585.034668,500.000000 
z"/>
<path fill="#FBFBFB" opacity="1.000000" stroke="none" 
	d="
M723.053406,452.358765 
	C724.761169,448.672058 726.262573,444.983856 730.761108,445.195038 
	C734.602234,445.375397 738.692810,449.874084 739.021240,454.608246 
	C739.931274,467.725891 740.395203,480.873993 741.250793,493.996063 
	C741.967346,504.986755 740.833130,515.708252 739.141296,526.612244 
	C737.882263,534.726501 739.670715,543.383362 740.589783,551.744995 
	C741.414185,559.245117 743.889343,566.391418 741.719055,574.315186 
	C740.273010,579.594543 741.546997,585.579956 741.246521,591.230347 
	C741.119812,593.612061 740.766235,596.613403 739.286499,598.146851 
	C736.928833,600.590027 732.618713,604.211914 730.794434,603.435425 
	C727.532654,602.046936 723.943665,598.049561 723.294067,594.613037 
	C721.985291,587.689087 722.365601,580.408936 722.388428,573.276855 
	C722.470947,547.449280 722.852112,521.621643 722.772583,495.795135 
	C722.747131,487.508820 721.236633,479.229065 721.171692,470.940277 
	C721.124146,464.880157 722.330200,458.810272 723.053406,452.358765 
z"/>
<path fill="#FBFAFB" opacity="1.000000" stroke="none" 
	d="
M1006.716064,451.856812 
	C1007.504517,484.735535 1008.487122,517.198181 1008.744934,549.666443 
	C1008.862061,564.417480 1007.549133,579.180237 1006.872681,593.937073 
	C1006.695984,597.792236 1002.252563,603.877197 999.412720,604.208313 
	C995.864685,604.622070 991.300232,600.757202 990.123901,595.756775 
	C989.372131,592.560852 989.046082,589.183533 989.090210,585.895142 
	C989.333923,567.748108 989.939514,549.604553 990.059387,531.457520 
	C990.208984,508.816956 989.943787,486.173828 990.019836,463.532379 
	C990.032532,459.752197 990.477539,455.872681 991.428711,452.223053 
	C992.513855,448.059631 995.729370,444.688477 999.957642,445.263947 
	C1002.411438,445.597900 1004.410583,449.271973 1006.716064,451.856812 
z"/>
<path fill="#FCFCFC" opacity="1.000000" stroke="none" 
	d="
M644.917419,582.989136 
	C644.920898,541.350159 644.957458,500.208832 644.885132,459.067688 
	C644.876099,453.943512 646.004028,449.425842 650.274780,446.362457 
	C651.491455,445.489655 654.066528,444.907166 655.049133,445.588959 
	C659.302307,448.539948 663.090332,451.965637 663.075623,457.930664 
	C662.993103,491.389374 663.087891,524.848694 662.931519,558.306824 
	C662.876282,570.121094 662.318970,581.934143 661.896484,593.744324 
	C661.832275,595.539185 661.694519,597.578796 660.819946,599.045532 
	C659.016602,602.069763 656.658020,605.162170 652.509644,603.991577 
	C648.156616,602.763306 645.544983,599.386169 645.029968,594.968262 
	C644.589294,591.188110 644.924866,587.317505 644.917419,582.989136 
z"/>
<path fill="#FCFCFC" opacity="1.000000" stroke="none" 
	d="
M683.535278,578.415588 
	C683.578979,538.986755 683.639771,500.026215 683.636292,461.065704 
	C683.635803,455.423187 683.970276,449.844452 689.132202,446.419037 
	C690.558594,445.472534 693.704163,445.494232 695.114807,446.457397 
	C699.003662,449.112610 701.145508,452.582733 701.128113,458.052917 
	C701.032471,488.183655 701.633606,518.315735 701.726440,548.448303 
	C701.772522,563.424072 701.287720,578.402527 700.952759,593.377808 
	C700.811035,599.713196 697.430420,603.956299 692.740417,604.051941 
	C687.575012,604.157288 683.567566,599.672668 683.431335,593.356018 
	C683.327393,588.534973 683.488525,583.708130 683.535278,578.415588 
z"/>
<path fill="#FCFCFC" opacity="1.000000" stroke="none" 
	d="
M803.968018,1030.060303 
	C814.411621,1041.791870 810.568481,1056.480103 803.864685,1064.432861 
	C795.183594,1074.731323 776.993958,1072.088501 770.189575,1062.318604 
	C765.417969,1055.467407 760.951294,1047.681885 764.802368,1038.773560 
	C768.703430,1029.749390 775.641968,1022.927185 785.379700,1021.787598 
	C792.049194,1021.007019 798.962830,1024.016602 803.968018,1030.060303 
z"/>
<path fill="#FDFCFC" opacity="1.000000" stroke="none" 
	d="
M766.192261,542.476562 
	C764.329956,533.633545 762.964355,525.133789 770.259949,518.384460 
	C778.178711,511.058502 787.287598,508.273956 797.779663,512.318481 
	C807.718933,516.149963 813.794739,532.051880 808.790039,542.665894 
	C805.148926,550.387756 799.837280,557.169800 790.112854,556.896606 
	C779.805176,556.606995 770.887634,553.235474 766.192261,542.476562 
z"/>
<path fill="#F9F9F9" opacity="1.000000" stroke="none" 
	d="
M775.414795,1097.916992 
	C776.245300,1099.576416 777.033508,1101.052246 777.085693,1102.553833 
	C777.356750,1110.346436 777.463318,1118.145264 777.579224,1125.942627 
	C777.642944,1130.227173 776.712341,1134.100830 773.330627,1137.175781 
	C769.984253,1140.218506 766.931946,1140.587891 764.535889,1136.916626 
	C762.463013,1133.740479 760.539062,1129.799805 760.426575,1126.139282 
	C760.113892,1115.960083 760.778198,1105.750732 761.104492,1093.796265 
	C766.774292,1095.403809 770.903625,1096.574463 775.414795,1097.916992 
z"/>
<path fill="#F9F9F9" opacity="1.000000" stroke="none" 
	d="
M813.885193,1096.312988 
	C814.270203,1107.645996 814.728027,1118.589233 814.640015,1129.528320 
	C814.606750,1133.671143 809.123108,1138.894165 806.065063,1138.777710 
	C802.604187,1138.645752 797.878906,1133.213989 797.794800,1128.746094 
	C797.645325,1120.799683 797.744080,1112.847168 797.862183,1104.898926 
	C797.877747,1103.850952 798.315002,1102.306641 799.071472,1101.856201 
	C803.165588,1099.418213 807.397766,1097.204712 811.657654,1095.063843 
	C812.097229,1094.842773 813.034424,1095.611938 813.885193,1096.312988 
z"/>
<path fill="#F9F9F9" opacity="1.000000" stroke="none" 
	d="
M760.299561,472.632141 
	C760.248047,466.508423 760.097961,460.842499 760.263672,455.185791 
	C760.443420,449.046539 764.367004,444.824249 769.512817,444.844360 
	C773.896118,444.861481 776.995056,449.165680 777.265015,455.275665 
	C777.587341,462.571838 778.263550,469.858185 778.355713,477.154236 
	C778.376709,478.812531 777.034119,481.289825 775.616760,482.012421 
	C771.540771,484.090485 767.105286,485.463531 762.497986,487.233856 
	C761.728943,482.194794 761.034424,477.644409 760.299561,472.632141 
z"/>
<path fill="#F9F9F9" opacity="1.000000" stroke="none" 
	d="
M797.839478,453.170227 
	C799.975037,449.281372 801.872253,445.104553 806.815247,445.772247 
	C811.830139,446.449646 815.104797,451.488068 814.777222,457.405487 
	C814.373291,464.703217 813.684265,471.985474 813.094055,479.272430 
	C812.847473,482.315765 811.588318,483.984314 808.229248,482.741516 
	C806.215271,481.996368 804.062378,481.548737 802.162231,480.590057 
	C798.033875,478.507080 795.341736,475.623138 796.153198,470.345581 
	C797.005859,464.799561 797.270142,459.163055 797.839478,453.170227 
z"/>
<path fill="#F9F9F9" opacity="1.000000" stroke="none" 
	d="
M812.174561,579.051147 
	C812.760132,585.051025 813.623291,591.030212 812.794556,596.765015 
	C812.409912,599.426697 809.160950,602.548096 806.446655,603.785156 
	C802.799805,605.447266 799.834167,602.863220 798.199280,599.338318 
	C796.475159,595.621033 794.880249,591.843811 792.756531,587.019775 
	C799.178528,584.286072 805.469177,581.608276 812.174561,579.051147 
z"/>
<path fill="#F9F9F9" opacity="1.000000" stroke="none" 
	d="
M812.459595,992.472168 
	C808.311768,991.946167 804.126770,991.634216 800.563782,989.981323 
	C796.210022,987.961609 795.351685,981.681641 798.008850,976.855286 
	C799.786743,973.625916 806.680298,971.447021 809.889404,973.661316 
	C811.507324,974.777649 812.911499,977.254578 813.067444,979.222900 
	C813.404480,983.476074 812.873901,987.797974 812.459595,992.472168 
z"/>
<path fill="#A7A19A" opacity="1.000000" stroke="none" 
	d="
M773.928711,978.212463 
	C777.213135,979.517273 782.047424,977.764038 782.395996,982.934509 
	C782.735901,987.976074 778.022095,987.470886 775.115967,988.730713 
	C772.402344,989.907166 769.494629,990.635803 766.656921,991.566467 
	C764.717712,982.440613 766.343689,979.322327 773.928711,978.212463 
z"/>
<path fill="#A7A19A" opacity="1.000000" stroke="none" 
	d="
M770.372925,587.460632 
	C769.130310,586.121277 767.798523,585.102539 766.242859,583.912537 
	C773.194763,585.330139 779.936340,586.704895 786.677856,588.079590 
	C786.681641,588.258911 786.685364,588.438232 786.689148,588.617554 
	C782.320618,588.946533 777.951416,589.267944 773.591125,589.683044 
	C773.531128,589.688782 773.583618,590.875366 773.583618,592.781982 
	C772.103394,590.538879 771.193542,589.160095 770.372925,587.460632 
z"/>
<path fill="#030303" opacity="1.000000" stroke="none" 
	d="
M803.934814,1172.648193 
	C803.572388,1172.390869 803.474731,1171.857422 803.377136,1171.323853 
	C803.651306,1171.673218 803.925476,1172.022583 803.934814,1172.648193 
z"/>
<path fill="#040404" opacity="1.000000" stroke="none" 
	d="
M635.991455,780.916016 
	C632.546997,780.919800 629.586182,780.919800 626.267029,780.919800 
	C626.134094,779.224121 625.921631,777.968750 625.955383,776.720093 
	C626.322876,763.101440 626.826660,749.485535 627.067261,735.864929 
	C627.143799,731.536072 628.674805,730.603394 632.901978,731.260498 
	C637.234009,731.933838 641.803955,731.796570 646.186768,731.292847 
	C661.110107,729.577576 672.926880,738.573608 674.442322,753.136963 
	C675.763489,765.833862 665.800720,777.952576 653.231567,779.069275 
	C647.635620,779.566467 642.059937,780.290894 635.991455,780.916016 
z"/>
<path fill="#070606" opacity="1.000000" stroke="none" 
	d="
M510.385162,782.376343 
	C512.803406,776.751892 515.037109,771.466797 517.648499,765.288147 
	C523.549377,778.838867 529.043945,791.456482 534.930908,804.975342 
	C523.516174,804.975342 513.305237,804.975342 502.027252,804.975342 
	C504.809875,797.397034 507.505280,790.056335 510.385162,782.376343 
z"/>
<path fill="#070606" opacity="1.000000" stroke="none" 
	d="
M1025.995239,784.954590 
	C1028.214111,779.607910 1030.340088,774.637390 1032.466064,769.666931 
	C1032.963257,769.635437 1033.460449,769.604004 1033.957764,769.572510 
	C1039.316772,781.253052 1044.675781,792.933655 1050.341797,805.283081 
	C1039.519287,805.283081 1029.333374,805.283081 1018.058289,805.283081 
	C1020.881531,798.101807 1023.391907,791.716309 1025.995239,784.954590 
z"/>
<path fill="#040404" opacity="1.000000" stroke="none" 
	d="
M1103.646240,1016.223633 
	C1125.916260,1027.724243 1133.332764,1056.143677 1120.241943,1077.097290 
	C1114.785767,1085.830566 1107.703857,1092.087891 1097.962158,1095.085938 
	C1083.394653,1099.569092 1066.141357,1093.485840 1057.094727,1079.439819 
	C1047.610596,1064.714233 1044.686523,1049.237427 1054.998657,1033.113281 
	C1061.018921,1023.699951 1069.205688,1016.351746 1080.009155,1013.696350 
	C1087.588257,1011.833313 1095.894531,1011.848267 1103.646240,1016.223633 
M1074.694458,1046.537476 
	C1071.243164,1053.507446 1072.359131,1060.534790 1077.891602,1066.670166 
	C1081.801147,1071.005737 1088.515137,1072.448486 1094.366333,1070.210205 
	C1100.536743,1067.849854 1104.341309,1061.993164 1104.284546,1054.942261 
	C1104.233765,1048.631104 1098.964844,1041.335083 1092.988525,1039.300537 
	C1086.698242,1037.159058 1080.242920,1039.530762 1074.694458,1046.537476 
z"/>
<path fill="#040404" opacity="1.000000" stroke="none" 
	d="
M471.969238,1016.876343 
	C484.420959,1008.427124 502.383606,1014.174316 511.551697,1023.510071 
	C529.822510,1042.115112 530.755432,1064.711426 514.575623,1084.403809 
	C504.527618,1096.633301 482.225311,1099.407104 468.542084,1090.430176 
	C443.511749,1074.009033 439.233093,1034.439453 471.969238,1016.876343 
M483.149933,1040.260498 
	C475.728241,1044.279907 473.295044,1050.730835 474.432007,1058.718994 
	C476.180573,1071.004150 489.262512,1073.543701 496.501038,1069.364380 
	C502.514801,1065.892334 505.640991,1056.595825 503.148499,1050.624756 
	C499.529572,1041.955200 492.052948,1037.838013 483.149933,1040.260498 
z"/>
<path fill="#040404" opacity="1.000000" stroke="none" 
	d="
M461.877045,499.882324 
	C468.955078,492.537079 477.329163,487.866669 487.070770,487.731110 
	C496.963806,487.593475 505.811127,491.668304 512.823608,498.958038 
	C523.660889,510.223846 528.776001,523.764404 525.449402,539.064209 
	C522.391479,553.127808 512.590271,562.608521 499.350494,567.686768 
	C486.617157,572.570618 474.754517,569.542847 464.532806,560.734314 
	C448.353394,546.791687 440.979065,521.275146 461.877045,499.882324 
M474.375183,528.746399 
	C474.625977,539.579834 481.884521,547.070618 490.652466,545.713623 
	C496.970856,544.735779 500.854858,541.091858 502.401123,535.095642 
	C504.078583,528.590698 503.275452,522.560913 497.858063,517.815674 
	C490.054993,510.980682 481.052521,512.332947 476.299652,521.269043 
	C475.240936,523.259583 475.026001,525.698914 474.375183,528.746399 
z"/>
<path fill="#040404" opacity="1.000000" stroke="none" 
	d="
M1060.866943,557.120056 
	C1042.115967,536.027405 1047.137939,512.598267 1068.322876,495.494354 
	C1081.859253,484.565430 1106.903198,484.714386 1118.929688,504.812714 
	C1123.721436,512.820374 1127.361816,521.215820 1127.063110,530.510620 
	C1126.337036,553.095581 1107.300537,574.816345 1078.988770,569.461731 
	C1071.665283,568.076721 1066.006592,562.992859 1060.866943,557.120056 
M1077.887939,518.394104 
	C1073.060669,523.465210 1071.730347,529.075317 1074.817871,535.640076 
	C1078.390137,543.235291 1087.586182,548.515564 1093.513062,545.575134 
	C1099.856689,542.427917 1103.538818,536.898438 1104.033813,529.784424 
	C1104.518433,522.818604 1101.071289,517.188354 1095.205933,514.215332 
	C1089.243286,511.193024 1083.269287,513.209595 1077.887939,518.394104 
z"/>
<path fill="#FCFCFC" opacity="1.000000" stroke="none" 
	d="
M1074.893066,1046.206543 
	C1080.242920,1039.530762 1086.698242,1037.159058 1092.988525,1039.300537 
	C1098.964844,1041.335083 1104.233765,1048.631104 1104.284546,1054.942261 
	C1104.341309,1061.993164 1100.536743,1067.849854 1094.366333,1070.210205 
	C1088.515137,1072.448486 1081.801147,1071.005737 1077.891602,1066.670166 
	C1072.359131,1060.534790 1071.243164,1053.507446 1074.893066,1046.206543 
z"/>
<path fill="#FAFAFA" opacity="1.000000" stroke="none" 
	d="
M483.521606,1040.140869 
	C492.052948,1037.838013 499.529572,1041.955200 503.148499,1050.624756 
	C505.640991,1056.595825 502.514801,1065.892334 496.501038,1069.364380 
	C489.262512,1073.543701 476.180573,1071.004150 474.432007,1058.718994 
	C473.295044,1050.730835 475.728241,1044.279907 483.521606,1040.140869 
z"/>
<path fill="#FAFAFA" opacity="1.000000" stroke="none" 
	d="
M474.398865,528.338989 
	C475.026001,525.698914 475.240936,523.259583 476.299652,521.269043 
	C481.052521,512.332947 490.054993,510.980682 497.858063,517.815674 
	C503.275452,522.560913 504.078583,528.590698 502.401123,535.095642 
	C500.854858,541.091858 496.970856,544.735779 490.652466,545.713623 
	C481.884521,547.070618 474.625977,539.579834 474.398865,528.338989 
z"/>
<path fill="#FBFBFB" opacity="1.000000" stroke="none" 
	d="
M1078.154053,518.145142 
	C1083.269287,513.209595 1089.243286,511.193024 1095.205933,514.215332 
	C1101.071289,517.188354 1104.518433,522.818604 1104.033813,529.784424 
	C1103.538818,536.898438 1099.856689,542.427917 1093.513062,545.575134 
	C1087.586182,548.515564 1078.390137,543.235291 1074.817871,535.640076 
	C1071.730347,529.075317 1073.060669,523.465210 1078.154053,518.145142 
z"/>
</svg>